ISO-10303-21;
HEADER;
/* Generated by software containing ST-Developer
 * from STEP Tools, Inc. (www.steptools.com) 
 */
/* OPTION: using custom renumber hook */

FILE_DESCRIPTION(
/* description */ ('STEP AP214',
'CAx-IF Rec.Pracs.---User Defined Attributes---1.5---2016-08-15'),
/* implementation_level */ '2;1');

FILE_NAME(
/* name */ '6ab93e891e3664ff532bb857',
/* time_stamp */ '2026-09-27T16:04:27Z',
/* author */ (''),
/* organization */ (''),
/* preprocessor_version */ 'ST-DEVELOPER v20',
/* originating_system */ 'ONSHAPE BY PTC INC, 1.221',
/* authorisation */ '  ');

FILE_SCHEMA (('AUTOMOTIVE_DESIGN {1 0 10303 214 3 1 1}'));
ENDSEC;

DATA;
#10=PROPERTY_DEFINITION_REPRESENTATION(#14,#12);
#11=PROPERTY_DEFINITION_REPRESENTATION(#15,#13);
#12=REPRESENTATION('',(#16),#1969);
#13=REPRESENTATION('',(#17),#1969);
#14=PROPERTY_DEFINITION('pmi validation property','',#1974);
#15=PROPERTY_DEFINITION('pmi validation property','',#1974);
#16=VALUE_REPRESENTATION_ITEM('number of annotations',COUNT_MEASURE(0.));
#17=VALUE_REPRESENTATION_ITEM('number of views',COUNT_MEASURE(0.));
#18=SHAPE_REPRESENTATION_RELATIONSHIP('','',#1203,#19);
#19=ADVANCED_BREP_SHAPE_REPRESENTATION('',(#1201),#1969);
#20=ELLIPSE('',#1231,4.94974746830583,3.5);
#21=ELLIPSE('',#1235,4.94974746830583,3.5);
#22=ELLIPSE('',#1237,4.94974746830583,3.5);
#23=ELLIPSE('',#1241,4.94974746830583,3.5);
#24=CYLINDRICAL_SURFACE('',#1230,3.5);
#25=CYLINDRICAL_SURFACE('',#1233,3.5);
#26=CYLINDRICAL_SURFACE('',#1236,3.5);
#27=CYLINDRICAL_SURFACE('',#1239,3.5);
#28=CYLINDRICAL_SURFACE('',#1242,3.13);
#29=CYLINDRICAL_SURFACE('',#1246,2.5);
#30=CYLINDRICAL_SURFACE('',#1250,3.13);
#31=CYLINDRICAL_SURFACE('',#1254,3.);
#32=CYLINDRICAL_SURFACE('',#1258,3.);
#33=CYLINDRICAL_SURFACE('',#1262,2.5);
#34=CYLINDRICAL_SURFACE('',#1266,1.3);
#35=CYLINDRICAL_SURFACE('',#1269,2.);
#36=CYLINDRICAL_SURFACE('',#1272,2.);
#37=CYLINDRICAL_SURFACE('',#1275,2.);
#38=CYLINDRICAL_SURFACE('',#1278,1.3);
#39=CYLINDRICAL_SURFACE('',#1281,2.);
#40=CYLINDRICAL_SURFACE('',#1284,3.25);
#41=CYLINDRICAL_SURFACE('',#1289,2.75);
#42=CIRCLE('',#1207,3.25);
#43=CIRCLE('',#1209,3.25);
#44=CIRCLE('',#1211,3.5);
#45=CIRCLE('',#1212,3.5);
#46=CIRCLE('',#1213,3.5);
#47=CIRCLE('',#1214,3.5);
#48=CIRCLE('',#1218,2.75);
#49=CIRCLE('',#1222,2.75);
#50=CIRCLE('',#1224,2.5);
#51=CIRCLE('',#1225,3.);
#52=CIRCLE('',#1226,3.);
#53=CIRCLE('',#1227,3.13);
#54=CIRCLE('',#1228,2.5);
#55=CIRCLE('',#1229,3.13);
#56=CIRCLE('',#1232,3.5);
#57=CIRCLE('',#1234,3.5);
#58=CIRCLE('',#1238,3.5);
#59=CIRCLE('',#1240,3.5);
#60=CIRCLE('',#1243,3.13);
#61=CIRCLE('',#1245,2.);
#62=CIRCLE('',#1247,2.5);
#63=CIRCLE('',#1249,1.3);
#64=CIRCLE('',#1251,3.13);
#65=CIRCLE('',#1253,2.);
#66=CIRCLE('',#1255,3.);
#67=CIRCLE('',#1257,2.);
#68=CIRCLE('',#1259,3.);
#69=CIRCLE('',#1261,2.);
#70=CIRCLE('',#1263,2.5);
#71=CIRCLE('',#1265,1.3);
#72=CIRCLE('',#1267,1.3);
#73=CIRCLE('',#1270,2.);
#74=CIRCLE('',#1273,2.);
#75=CIRCLE('',#1276,2.);
#76=CIRCLE('',#1279,1.3);
#77=CIRCLE('',#1282,2.);
#78=ORIENTED_EDGE('',*,*,#378,.F.);
#79=ORIENTED_EDGE('',*,*,#379,.F.);
#80=ORIENTED_EDGE('',*,*,#380,.T.);
#81=ORIENTED_EDGE('',*,*,#381,.T.);
#82=ORIENTED_EDGE('',*,*,#382,.F.);
#83=ORIENTED_EDGE('',*,*,#383,.F.);
#84=ORIENTED_EDGE('',*,*,#384,.T.);
#85=ORIENTED_EDGE('',*,*,#385,.T.);
#86=ORIENTED_EDGE('',*,*,#386,.F.);
#87=ORIENTED_EDGE('',*,*,#387,.F.);
#88=ORIENTED_EDGE('',*,*,#388,.T.);
#89=ORIENTED_EDGE('',*,*,#389,.T.);
#90=ORIENTED_EDGE('',*,*,#390,.F.);
#91=ORIENTED_EDGE('',*,*,#391,.F.);
#92=ORIENTED_EDGE('',*,*,#392,.T.);
#93=ORIENTED_EDGE('',*,*,#393,.T.);
#94=ORIENTED_EDGE('',*,*,#394,.F.);
#95=ORIENTED_EDGE('',*,*,#395,.T.);
#96=ORIENTED_EDGE('',*,*,#396,.T.);
#97=ORIENTED_EDGE('',*,*,#397,.F.);
#98=ORIENTED_EDGE('',*,*,#398,.T.);
#99=ORIENTED_EDGE('',*,*,#399,.T.);
#100=ORIENTED_EDGE('',*,*,#400,.T.);
#101=ORIENTED_EDGE('',*,*,#401,.T.);
#102=ORIENTED_EDGE('',*,*,#402,.T.);
#103=ORIENTED_EDGE('',*,*,#403,.F.);
#104=ORIENTED_EDGE('',*,*,#404,.F.);
#105=ORIENTED_EDGE('',*,*,#405,.T.);
#106=ORIENTED_EDGE('',*,*,#406,.T.);
#107=ORIENTED_EDGE('',*,*,#407,.F.);
#108=ORIENTED_EDGE('',*,*,#408,.F.);
#109=ORIENTED_EDGE('',*,*,#409,.F.);
#110=ORIENTED_EDGE('',*,*,#410,.F.);
#111=ORIENTED_EDGE('',*,*,#411,.F.);
#112=ORIENTED_EDGE('',*,*,#412,.T.);
#113=ORIENTED_EDGE('',*,*,#413,.T.);
#114=ORIENTED_EDGE('',*,*,#414,.T.);
#115=ORIENTED_EDGE('',*,*,#415,.T.);
#116=ORIENTED_EDGE('',*,*,#416,.F.);
#117=ORIENTED_EDGE('',*,*,#417,.F.);
#118=ORIENTED_EDGE('',*,*,#418,.T.);
#119=ORIENTED_EDGE('',*,*,#419,.T.);
#120=ORIENTED_EDGE('',*,*,#420,.F.);
#121=ORIENTED_EDGE('',*,*,#421,.T.);
#122=ORIENTED_EDGE('',*,*,#422,.F.);
#123=ORIENTED_EDGE('',*,*,#423,.T.);
#124=ORIENTED_EDGE('',*,*,#403,.T.);
#125=ORIENTED_EDGE('',*,*,#424,.T.);
#126=ORIENTED_EDGE('',*,*,#412,.F.);
#127=ORIENTED_EDGE('',*,*,#425,.T.);
#128=ORIENTED_EDGE('',*,*,#426,.T.);
#129=ORIENTED_EDGE('',*,*,#427,.F.);
#130=ORIENTED_EDGE('',*,*,#428,.T.);
#131=ORIENTED_EDGE('',*,*,#429,.T.);
#132=ORIENTED_EDGE('',*,*,#430,.F.);
#133=ORIENTED_EDGE('',*,*,#431,.T.);
#134=ORIENTED_EDGE('',*,*,#395,.F.);
#135=ORIENTED_EDGE('',*,*,#432,.F.);
#136=ORIENTED_EDGE('',*,*,#433,.F.);
#137=ORIENTED_EDGE('',*,*,#434,.T.);
#138=ORIENTED_EDGE('',*,*,#435,.T.);
#139=ORIENTED_EDGE('',*,*,#422,.T.);
#140=ORIENTED_EDGE('',*,*,#436,.T.);
#141=ORIENTED_EDGE('',*,*,#437,.T.);
#142=ORIENTED_EDGE('',*,*,#438,.T.);
#143=ORIENTED_EDGE('',*,*,#418,.F.);
#144=ORIENTED_EDGE('',*,*,#439,.T.);
#145=ORIENTED_EDGE('',*,*,#440,.T.);
#146=ORIENTED_EDGE('',*,*,#441,.F.);
#147=ORIENTED_EDGE('',*,*,#442,.T.);
#148=ORIENTED_EDGE('',*,*,#397,.T.);
#149=ORIENTED_EDGE('',*,*,#443,.F.);
#150=ORIENTED_EDGE('',*,*,#444,.F.);
#151=ORIENTED_EDGE('',*,*,#445,.T.);
#152=ORIENTED_EDGE('',*,*,#446,.T.);
#153=ORIENTED_EDGE('',*,*,#447,.T.);
#154=ORIENTED_EDGE('',*,*,#420,.T.);
#155=ORIENTED_EDGE('',*,*,#448,.T.);
#156=ORIENTED_EDGE('',*,*,#449,.T.);
#157=ORIENTED_EDGE('',*,*,#450,.T.);
#158=ORIENTED_EDGE('',*,*,#451,.F.);
#159=ORIENTED_EDGE('',*,*,#425,.F.);
#160=ORIENTED_EDGE('',*,*,#411,.T.);
#161=ORIENTED_EDGE('',*,*,#452,.F.);
#162=ORIENTED_EDGE('',*,*,#413,.F.);
#163=ORIENTED_EDGE('',*,*,#427,.T.);
#164=ORIENTED_EDGE('',*,*,#453,.T.);
#165=ORIENTED_EDGE('',*,*,#454,.T.);
#166=ORIENTED_EDGE('',*,*,#455,.T.);
#167=ORIENTED_EDGE('',*,*,#453,.F.);
#168=ORIENTED_EDGE('',*,*,#426,.F.);
#169=ORIENTED_EDGE('',*,*,#451,.T.);
#170=ORIENTED_EDGE('',*,*,#456,.F.);
#171=ORIENTED_EDGE('',*,*,#457,.F.);
#172=ORIENTED_EDGE('',*,*,#458,.T.);
#173=ORIENTED_EDGE('',*,*,#459,.T.);
#174=ORIENTED_EDGE('',*,*,#460,.F.);
#175=ORIENTED_EDGE('',*,*,#461,.F.);
#176=ORIENTED_EDGE('',*,*,#462,.T.);
#177=ORIENTED_EDGE('',*,*,#463,.T.);
#178=ORIENTED_EDGE('',*,*,#464,.F.);
#179=ORIENTED_EDGE('',*,*,#465,.F.);
#180=ORIENTED_EDGE('',*,*,#466,.T.);
#181=ORIENTED_EDGE('',*,*,#467,.T.);
#182=ORIENTED_EDGE('',*,*,#468,.F.);
#183=ORIENTED_EDGE('',*,*,#469,.F.);
#184=ORIENTED_EDGE('',*,*,#470,.T.);
#185=ORIENTED_EDGE('',*,*,#471,.T.);
#186=ORIENTED_EDGE('',*,*,#472,.F.);
#187=ORIENTED_EDGE('',*,*,#473,.F.);
#188=ORIENTED_EDGE('',*,*,#474,.F.);
#189=ORIENTED_EDGE('',*,*,#475,.F.);
#190=ORIENTED_EDGE('',*,*,#476,.F.);
#191=ORIENTED_EDGE('',*,*,#477,.F.);
#192=ORIENTED_EDGE('',*,*,#450,.F.);
#193=ORIENTED_EDGE('',*,*,#410,.T.);
#194=ORIENTED_EDGE('',*,*,#452,.T.);
#195=ORIENTED_EDGE('',*,*,#455,.F.);
#196=ORIENTED_EDGE('',*,*,#421,.F.);
#197=ORIENTED_EDGE('',*,*,#447,.F.);
#198=ORIENTED_EDGE('',*,*,#446,.F.);
#199=ORIENTED_EDGE('',*,*,#478,.F.);
#200=ORIENTED_EDGE('',*,*,#479,.F.);
#201=ORIENTED_EDGE('',*,*,#429,.F.);
#202=ORIENTED_EDGE('',*,*,#428,.F.);
#203=ORIENTED_EDGE('',*,*,#423,.F.);
#204=ORIENTED_EDGE('',*,*,#435,.F.);
#205=ORIENTED_EDGE('',*,*,#434,.F.);
#206=ORIENTED_EDGE('',*,*,#480,.F.);
#207=ORIENTED_EDGE('',*,*,#481,.F.);
#208=ORIENTED_EDGE('',*,*,#399,.F.);
#209=ORIENTED_EDGE('',*,*,#398,.F.);
#210=ORIENTED_EDGE('',*,*,#424,.F.);
#211=ORIENTED_EDGE('',*,*,#402,.F.);
#212=ORIENTED_EDGE('',*,*,#401,.F.);
#213=ORIENTED_EDGE('',*,*,#482,.F.);
#214=ORIENTED_EDGE('',*,*,#483,.F.);
#215=ORIENTED_EDGE('',*,*,#440,.F.);
#216=ORIENTED_EDGE('',*,*,#439,.F.);
#217=ORIENTED_EDGE('',*,*,#419,.F.);
#218=ORIENTED_EDGE('',*,*,#438,.F.);
#219=ORIENTED_EDGE('',*,*,#437,.F.);
#220=ORIENTED_EDGE('',*,*,#484,.F.);
#221=ORIENTED_EDGE('',*,*,#485,.F.);
#222=ORIENTED_EDGE('',*,*,#449,.F.);
#223=ORIENTED_EDGE('',*,*,#448,.F.);
#224=ORIENTED_EDGE('',*,*,#486,.F.);
#225=ORIENTED_EDGE('',*,*,#477,.T.);
#226=ORIENTED_EDGE('',*,*,#487,.F.);
#227=ORIENTED_EDGE('',*,*,#486,.T.);
#228=ORIENTED_EDGE('',*,*,#488,.F.);
#229=ORIENTED_EDGE('',*,*,#476,.T.);
#230=ORIENTED_EDGE('',*,*,#489,.F.);
#231=ORIENTED_EDGE('',*,*,#488,.T.);
#232=ORIENTED_EDGE('',*,*,#490,.F.);
#233=ORIENTED_EDGE('',*,*,#475,.T.);
#234=ORIENTED_EDGE('',*,*,#491,.F.);
#235=ORIENTED_EDGE('',*,*,#490,.T.);
#236=ORIENTED_EDGE('',*,*,#492,.F.);
#237=ORIENTED_EDGE('',*,*,#474,.T.);
#238=ORIENTED_EDGE('',*,*,#493,.F.);
#239=ORIENTED_EDGE('',*,*,#492,.T.);
#240=ORIENTED_EDGE('',*,*,#494,.F.);
#241=ORIENTED_EDGE('',*,*,#473,.T.);
#242=ORIENTED_EDGE('',*,*,#495,.F.);
#243=ORIENTED_EDGE('',*,*,#494,.T.);
#244=ORIENTED_EDGE('',*,*,#496,.F.);
#245=ORIENTED_EDGE('',*,*,#472,.T.);
#246=ORIENTED_EDGE('',*,*,#497,.F.);
#247=ORIENTED_EDGE('',*,*,#496,.T.);
#248=ORIENTED_EDGE('',*,*,#498,.F.);
#249=ORIENTED_EDGE('',*,*,#497,.T.);
#250=ORIENTED_EDGE('',*,*,#498,.T.);
#251=ORIENTED_EDGE('',*,*,#499,.F.);
#252=ORIENTED_EDGE('',*,*,#495,.T.);
#253=ORIENTED_EDGE('',*,*,#499,.T.);
#254=ORIENTED_EDGE('',*,*,#500,.F.);
#255=ORIENTED_EDGE('',*,*,#493,.T.);
#256=ORIENTED_EDGE('',*,*,#500,.T.);
#257=ORIENTED_EDGE('',*,*,#501,.F.);
#258=ORIENTED_EDGE('',*,*,#491,.T.);
#259=ORIENTED_EDGE('',*,*,#501,.T.);
#260=ORIENTED_EDGE('',*,*,#502,.F.);
#261=ORIENTED_EDGE('',*,*,#489,.T.);
#262=ORIENTED_EDGE('',*,*,#502,.T.);
#263=ORIENTED_EDGE('',*,*,#503,.F.);
#264=ORIENTED_EDGE('',*,*,#487,.T.);
#265=ORIENTED_EDGE('',*,*,#503,.T.);
#266=ORIENTED_EDGE('',*,*,#409,.T.);
#267=ORIENTED_EDGE('',*,*,#404,.T.);
#268=ORIENTED_EDGE('',*,*,#504,.T.);
#269=ORIENTED_EDGE('',*,*,#405,.F.);
#270=ORIENTED_EDGE('',*,*,#505,.F.);
#271=ORIENTED_EDGE('',*,*,#415,.F.);
#272=ORIENTED_EDGE('',*,*,#416,.T.);
#273=ORIENTED_EDGE('',*,*,#505,.T.);
#274=ORIENTED_EDGE('',*,*,#408,.T.);
#275=ORIENTED_EDGE('',*,*,#506,.F.);
#276=ORIENTED_EDGE('',*,*,#417,.T.);
#277=ORIENTED_EDGE('',*,*,#506,.T.);
#278=ORIENTED_EDGE('',*,*,#407,.T.);
#279=ORIENTED_EDGE('',*,*,#507,.F.);
#280=ORIENTED_EDGE('',*,*,#507,.T.);
#281=ORIENTED_EDGE('',*,*,#406,.F.);
#282=ORIENTED_EDGE('',*,*,#504,.F.);
#283=ORIENTED_EDGE('',*,*,#414,.F.);
#284=ORIENTED_EDGE('',*,*,#444,.T.);
#285=ORIENTED_EDGE('',*,*,#454,.F.);
#286=ORIENTED_EDGE('',*,*,#508,.T.);
#287=ORIENTED_EDGE('',*,*,#443,.T.);
#288=ORIENTED_EDGE('',*,*,#396,.F.);
#289=ORIENTED_EDGE('',*,*,#431,.F.);
#290=ORIENTED_EDGE('',*,*,#430,.T.);
#291=ORIENTED_EDGE('',*,*,#479,.T.);
#292=ORIENTED_EDGE('',*,*,#509,.T.);
#293=ORIENTED_EDGE('',*,*,#484,.T.);
#294=ORIENTED_EDGE('',*,*,#436,.F.);
#295=ORIENTED_EDGE('',*,*,#508,.F.);
#296=ORIENTED_EDGE('',*,*,#442,.F.);
#297=ORIENTED_EDGE('',*,*,#510,.F.);
#298=ORIENTED_EDGE('',*,*,#432,.T.);
#299=ORIENTED_EDGE('',*,*,#394,.T.);
#300=ORIENTED_EDGE('',*,*,#511,.T.);
#301=ORIENTED_EDGE('',*,*,#480,.T.);
#302=ORIENTED_EDGE('',*,*,#433,.T.);
#303=ORIENTED_EDGE('',*,*,#510,.T.);
#304=ORIENTED_EDGE('',*,*,#441,.T.);
#305=ORIENTED_EDGE('',*,*,#483,.T.);
#306=ORIENTED_EDGE('',*,*,#509,.F.);
#307=ORIENTED_EDGE('',*,*,#478,.T.);
#308=ORIENTED_EDGE('',*,*,#445,.F.);
#309=ORIENTED_EDGE('',*,*,#485,.T.);
#310=ORIENTED_EDGE('',*,*,#400,.F.);
#311=ORIENTED_EDGE('',*,*,#481,.T.);
#312=ORIENTED_EDGE('',*,*,#511,.F.);
#313=ORIENTED_EDGE('',*,*,#482,.T.);
#314=ORIENTED_EDGE('',*,*,#468,.T.);
#315=ORIENTED_EDGE('',*,*,#512,.T.);
#316=ORIENTED_EDGE('',*,*,#391,.T.);
#317=ORIENTED_EDGE('',*,*,#513,.F.);
#318=ORIENTED_EDGE('',*,*,#514,.T.);
#319=ORIENTED_EDGE('',*,*,#392,.F.);
#320=ORIENTED_EDGE('',*,*,#512,.F.);
#321=ORIENTED_EDGE('',*,*,#471,.F.);
#322=ORIENTED_EDGE('',*,*,#515,.T.);
#323=ORIENTED_EDGE('',*,*,#393,.F.);
#324=ORIENTED_EDGE('',*,*,#514,.F.);
#325=ORIENTED_EDGE('',*,*,#470,.F.);
#326=ORIENTED_EDGE('',*,*,#469,.T.);
#327=ORIENTED_EDGE('',*,*,#513,.T.);
#328=ORIENTED_EDGE('',*,*,#390,.T.);
#329=ORIENTED_EDGE('',*,*,#515,.F.);
#330=ORIENTED_EDGE('',*,*,#464,.T.);
#331=ORIENTED_EDGE('',*,*,#516,.T.);
#332=ORIENTED_EDGE('',*,*,#387,.T.);
#333=ORIENTED_EDGE('',*,*,#517,.F.);
#334=ORIENTED_EDGE('',*,*,#518,.T.);
#335=ORIENTED_EDGE('',*,*,#388,.F.);
#336=ORIENTED_EDGE('',*,*,#516,.F.);
#337=ORIENTED_EDGE('',*,*,#467,.F.);
#338=ORIENTED_EDGE('',*,*,#519,.T.);
#339=ORIENTED_EDGE('',*,*,#389,.F.);
#340=ORIENTED_EDGE('',*,*,#518,.F.);
#341=ORIENTED_EDGE('',*,*,#466,.F.);
#342=ORIENTED_EDGE('',*,*,#465,.T.);
#343=ORIENTED_EDGE('',*,*,#517,.T.);
#344=ORIENTED_EDGE('',*,*,#386,.T.);
#345=ORIENTED_EDGE('',*,*,#519,.F.);
#346=ORIENTED_EDGE('',*,*,#460,.T.);
#347=ORIENTED_EDGE('',*,*,#520,.T.);
#348=ORIENTED_EDGE('',*,*,#383,.T.);
#349=ORIENTED_EDGE('',*,*,#521,.F.);
#350=ORIENTED_EDGE('',*,*,#522,.T.);
#351=ORIENTED_EDGE('',*,*,#384,.F.);
#352=ORIENTED_EDGE('',*,*,#520,.F.);
#353=ORIENTED_EDGE('',*,*,#463,.F.);
#354=ORIENTED_EDGE('',*,*,#523,.T.);
#355=ORIENTED_EDGE('',*,*,#385,.F.);
#356=ORIENTED_EDGE('',*,*,#522,.F.);
#357=ORIENTED_EDGE('',*,*,#462,.F.);
#358=ORIENTED_EDGE('',*,*,#461,.T.);
#359=ORIENTED_EDGE('',*,*,#521,.T.);
#360=ORIENTED_EDGE('',*,*,#382,.T.);
#361=ORIENTED_EDGE('',*,*,#523,.F.);
#362=ORIENTED_EDGE('',*,*,#456,.T.);
#363=ORIENTED_EDGE('',*,*,#524,.T.);
#364=ORIENTED_EDGE('',*,*,#379,.T.);
#365=ORIENTED_EDGE('',*,*,#525,.F.);
#366=ORIENTED_EDGE('',*,*,#526,.T.);
#367=ORIENTED_EDGE('',*,*,#380,.F.);
#368=ORIENTED_EDGE('',*,*,#524,.F.);
#369=ORIENTED_EDGE('',*,*,#459,.F.);
#370=ORIENTED_EDGE('',*,*,#527,.T.);
#371=ORIENTED_EDGE('',*,*,#381,.F.);
#372=ORIENTED_EDGE('',*,*,#526,.F.);
#373=ORIENTED_EDGE('',*,*,#458,.F.);
#374=ORIENTED_EDGE('',*,*,#457,.T.);
#375=ORIENTED_EDGE('',*,*,#525,.T.);
#376=ORIENTED_EDGE('',*,*,#378,.T.);
#377=ORIENTED_EDGE('',*,*,#527,.F.);
#378=EDGE_CURVE('',#528,#529,#640,.T.);
#379=EDGE_CURVE('',#530,#528,#641,.T.);
#380=EDGE_CURVE('',#530,#531,#642,.T.);
#381=EDGE_CURVE('',#531,#529,#643,.T.);
#382=EDGE_CURVE('',#532,#533,#644,.T.);
#383=EDGE_CURVE('',#534,#532,#645,.T.);
#384=EDGE_CURVE('',#534,#535,#646,.T.);
#385=EDGE_CURVE('',#535,#533,#647,.T.);
#386=EDGE_CURVE('',#536,#537,#648,.T.);
#387=EDGE_CURVE('',#538,#536,#649,.T.);
#388=EDGE_CURVE('',#538,#539,#650,.T.);
#389=EDGE_CURVE('',#539,#537,#651,.T.);
#390=EDGE_CURVE('',#540,#541,#652,.T.);
#391=EDGE_CURVE('',#542,#540,#653,.T.);
#392=EDGE_CURVE('',#542,#543,#654,.T.);
#393=EDGE_CURVE('',#543,#541,#655,.T.);
#394=EDGE_CURVE('',#544,#545,#656,.T.);
#395=EDGE_CURVE('',#544,#546,#657,.T.);
#396=EDGE_CURVE('',#546,#547,#658,.T.);
#397=EDGE_CURVE('',#545,#547,#659,.T.);
#398=EDGE_CURVE('',#548,#549,#660,.T.);
#399=EDGE_CURVE('',#549,#550,#661,.T.);
#400=EDGE_CURVE('',#550,#551,#662,.T.);
#401=EDGE_CURVE('',#551,#552,#663,.T.);
#402=EDGE_CURVE('',#552,#553,#664,.F.);
#403=EDGE_CURVE('',#548,#553,#665,.T.);
#404=EDGE_CURVE('',#554,#554,#42,.T.);
#405=EDGE_CURVE('',#555,#556,#666,.T.);
#406=EDGE_CURVE('',#556,#557,#667,.T.);
#407=EDGE_CURVE('',#558,#557,#668,.T.);
#408=EDGE_CURVE('',#555,#558,#669,.T.);
#409=EDGE_CURVE('',#559,#559,#43,.T.);
#410=EDGE_CURVE('',#560,#561,#670,.T.);
#411=EDGE_CURVE('',#562,#560,#671,.T.);
#412=EDGE_CURVE('',#562,#563,#672,.T.);
#413=EDGE_CURVE('',#563,#561,#673,.T.);
#414=EDGE_CURVE('',#564,#565,#674,.T.);
#415=EDGE_CURVE('',#565,#566,#675,.T.);
#416=EDGE_CURVE('',#567,#566,#676,.T.);
#417=EDGE_CURVE('',#564,#567,#677,.T.);
#418=EDGE_CURVE('',#568,#569,#678,.T.);
#419=EDGE_CURVE('',#569,#570,#44,.T.);
#420=EDGE_CURVE('',#571,#570,#679,.T.);
#421=EDGE_CURVE('',#571,#572,#45,.T.);
#422=EDGE_CURVE('',#573,#572,#680,.T.);
#423=EDGE_CURVE('',#573,#548,#46,.T.);
#424=EDGE_CURVE('',#553,#568,#47,.T.);
#425=EDGE_CURVE('',#562,#574,#681,.T.);
#426=EDGE_CURVE('',#574,#575,#682,.T.);
#427=EDGE_CURVE('',#563,#575,#683,.T.);
#428=EDGE_CURVE('',#572,#576,#684,.T.);
#429=EDGE_CURVE('',#576,#577,#685,.F.);
#430=EDGE_CURVE('',#578,#577,#686,.T.);
#431=EDGE_CURVE('',#578,#546,#687,.T.);
#432=EDGE_CURVE('',#579,#544,#688,.T.);
#433=EDGE_CURVE('',#580,#579,#689,.T.);
#434=EDGE_CURVE('',#580,#581,#690,.F.);
#435=EDGE_CURVE('',#581,#573,#691,.F.);
#436=EDGE_CURVE('',#582,#583,#692,.T.);
#437=EDGE_CURVE('',#583,#584,#693,.F.);
#438=EDGE_CURVE('',#584,#569,#694,.F.);
#439=EDGE_CURVE('',#568,#585,#695,.T.);
#440=EDGE_CURVE('',#585,#586,#696,.F.);
#441=EDGE_CURVE('',#587,#586,#697,.T.);
#442=EDGE_CURVE('',#587,#545,#698,.T.);
#443=EDGE_CURVE('',#582,#547,#699,.T.);
#444=EDGE_CURVE('',#588,#588,#48,.T.);
#445=EDGE_CURVE('',#589,#590,#700,.T.);
#446=EDGE_CURVE('',#590,#591,#701,.T.);
#447=EDGE_CURVE('',#591,#571,#702,.F.);
#448=EDGE_CURVE('',#570,#592,#703,.T.);
#449=EDGE_CURVE('',#592,#589,#704,.T.);
#450=EDGE_CURVE('',#560,#593,#705,.T.);
#451=EDGE_CURVE('',#574,#593,#706,.T.);
#452=EDGE_CURVE('',#561,#594,#707,.T.);
#453=EDGE_CURVE('',#575,#594,#708,.T.);
#454=EDGE_CURVE('',#595,#595,#49,.T.);
#455=EDGE_CURVE('',#593,#594,#709,.T.);
#456=EDGE_CURVE('',#596,#597,#710,.T.);
#457=EDGE_CURVE('',#598,#596,#711,.T.);
#458=EDGE_CURVE('',#598,#599,#712,.T.);
#459=EDGE_CURVE('',#599,#597,#713,.T.);
#460=EDGE_CURVE('',#600,#601,#714,.T.);
#461=EDGE_CURVE('',#602,#600,#715,.T.);
#462=EDGE_CURVE('',#602,#603,#716,.T.);
#463=EDGE_CURVE('',#603,#601,#717,.T.);
#464=EDGE_CURVE('',#604,#605,#718,.T.);
#465=EDGE_CURVE('',#606,#604,#719,.T.);
#466=EDGE_CURVE('',#606,#607,#720,.T.);
#467=EDGE_CURVE('',#607,#605,#721,.T.);
#468=EDGE_CURVE('',#608,#609,#722,.T.);
#469=EDGE_CURVE('',#610,#608,#723,.T.);
#470=EDGE_CURVE('',#610,#611,#724,.T.);
#471=EDGE_CURVE('',#611,#609,#725,.T.);
#472=EDGE_CURVE('',#612,#612,#50,.T.);
#473=EDGE_CURVE('',#613,#613,#51,.T.);
#474=EDGE_CURVE('',#614,#614,#52,.T.);
#475=EDGE_CURVE('',#615,#615,#53,.T.);
#476=EDGE_CURVE('',#616,#616,#54,.T.);
#477=EDGE_CURVE('',#617,#617,#55,.T.);
#478=EDGE_CURVE('',#618,#590,#20,.T.);
#479=EDGE_CURVE('',#577,#618,#56,.F.);
#480=EDGE_CURVE('',#619,#580,#57,.F.);
#481=EDGE_CURVE('',#550,#619,#21,.F.);
#482=EDGE_CURVE('',#620,#551,#22,.F.);
#483=EDGE_CURVE('',#586,#620,#58,.F.);
#484=EDGE_CURVE('',#621,#583,#59,.F.);
#485=EDGE_CURVE('',#589,#621,#23,.T.);
#486=EDGE_CURVE('',#622,#622,#60,.T.);
#487=EDGE_CURVE('',#623,#623,#61,.T.);
#488=EDGE_CURVE('',#624,#624,#62,.T.);
#489=EDGE_CURVE('',#625,#625,#63,.T.);
#490=EDGE_CURVE('',#626,#626,#64,.T.);
#491=EDGE_CURVE('',#627,#627,#65,.T.);
#492=EDGE_CURVE('',#628,#628,#66,.T.);
#493=EDGE_CURVE('',#629,#629,#67,.T.);
#494=EDGE_CURVE('',#630,#630,#68,.T.);
#495=EDGE_CURVE('',#631,#631,#69,.T.);
#496=EDGE_CURVE('',#632,#632,#70,.T.);
#497=EDGE_CURVE('',#633,#633,#71,.T.);
#498=EDGE_CURVE('',#634,#634,#72,.T.);
#499=EDGE_CURVE('',#635,#635,#73,.T.);
#500=EDGE_CURVE('',#636,#636,#74,.T.);
#501=EDGE_CURVE('',#637,#637,#75,.T.);
#502=EDGE_CURVE('',#638,#638,#76,.T.);
#503=EDGE_CURVE('',#639,#639,#77,.T.);
#504=EDGE_CURVE('',#565,#556,#726,.T.);
#505=EDGE_CURVE('',#566,#555,#727,.T.);
#506=EDGE_CURVE('',#567,#558,#728,.T.);
#507=EDGE_CURVE('',#564,#557,#729,.T.);
#508=EDGE_CURVE('',#578,#582,#730,.T.);
#509=EDGE_CURVE('',#618,#621,#731,.T.);
#510=EDGE_CURVE('',#579,#587,#732,.T.);
#511=EDGE_CURVE('',#620,#619,#733,.T.);
#512=EDGE_CURVE('',#609,#542,#734,.T.);
#513=EDGE_CURVE('',#608,#540,#735,.T.);
#514=EDGE_CURVE('',#611,#543,#736,.T.);
#515=EDGE_CURVE('',#610,#541,#737,.T.);
#516=EDGE_CURVE('',#605,#538,#738,.T.);
#517=EDGE_CURVE('',#604,#536,#739,.T.);
#518=EDGE_CURVE('',#607,#539,#740,.T.);
#519=EDGE_CURVE('',#606,#537,#741,.T.);
#520=EDGE_CURVE('',#601,#534,#742,.T.);
#521=EDGE_CURVE('',#600,#532,#743,.T.);
#522=EDGE_CURVE('',#603,#535,#744,.T.);
#523=EDGE_CURVE('',#602,#533,#745,.T.);
#524=EDGE_CURVE('',#597,#530,#746,.T.);
#525=EDGE_CURVE('',#596,#528,#747,.T.);
#526=EDGE_CURVE('',#599,#531,#748,.T.);
#527=EDGE_CURVE('',#598,#529,#749,.T.);
#528=VERTEX_POINT('',#1641);
#529=VERTEX_POINT('',#1642);
#530=VERTEX_POINT('',#1644);
#531=VERTEX_POINT('',#1646);
#532=VERTEX_POINT('',#1649);
#533=VERTEX_POINT('',#1650);
#534=VERTEX_POINT('',#1652);
#535=VERTEX_POINT('',#1654);
#536=VERTEX_POINT('',#1657);
#537=VERTEX_POINT('',#1658);
#538=VERTEX_POINT('',#1660);
#539=VERTEX_POINT('',#1662);
#540=VERTEX_POINT('',#1665);
#541=VERTEX_POINT('',#1666);
#542=VERTEX_POINT('',#1668);
#543=VERTEX_POINT('',#1670);
#544=VERTEX_POINT('',#1673);
#545=VERTEX_POINT('',#1674);
#546=VERTEX_POINT('',#1676);
#547=VERTEX_POINT('',#1678);
#548=VERTEX_POINT('',#1682);
#549=VERTEX_POINT('',#1683);
#550=VERTEX_POINT('',#1685);
#551=VERTEX_POINT('',#1687);
#552=VERTEX_POINT('',#1689);
#553=VERTEX_POINT('',#1691);
#554=VERTEX_POINT('',#1694);
#555=VERTEX_POINT('',#1696);
#556=VERTEX_POINT('',#1697);
#557=VERTEX_POINT('',#1699);
#558=VERTEX_POINT('',#1701);
#559=VERTEX_POINT('',#1705);
#560=VERTEX_POINT('',#1707);
#561=VERTEX_POINT('',#1708);
#562=VERTEX_POINT('',#1710);
#563=VERTEX_POINT('',#1712);
#564=VERTEX_POINT('',#1715);
#565=VERTEX_POINT('',#1716);
#566=VERTEX_POINT('',#1718);
#567=VERTEX_POINT('',#1720);
#568=VERTEX_POINT('',#1724);
#569=VERTEX_POINT('',#1725);
#570=VERTEX_POINT('',#1727);
#571=VERTEX_POINT('',#1729);
#572=VERTEX_POINT('',#1731);
#573=VERTEX_POINT('',#1733);
#574=VERTEX_POINT('',#1737);
#575=VERTEX_POINT('',#1739);
#576=VERTEX_POINT('',#1743);
#577=VERTEX_POINT('',#1745);
#578=VERTEX_POINT('',#1747);
#579=VERTEX_POINT('',#1750);
#580=VERTEX_POINT('',#1752);
#581=VERTEX_POINT('',#1754);
#582=VERTEX_POINT('',#1758);
#583=VERTEX_POINT('',#1759);
#584=VERTEX_POINT('',#1761);
#585=VERTEX_POINT('',#1764);
#586=VERTEX_POINT('',#1766);
#587=VERTEX_POINT('',#1768);
#588=VERTEX_POINT('',#1773);
#589=VERTEX_POINT('',#1775);
#590=VERTEX_POINT('',#1776);
#591=VERTEX_POINT('',#1778);
#592=VERTEX_POINT('',#1781);
#593=VERTEX_POINT('',#1785);
#594=VERTEX_POINT('',#1789);
#595=VERTEX_POINT('',#1793);
#596=VERTEX_POINT('',#1797);
#597=VERTEX_POINT('',#1798);
#598=VERTEX_POINT('',#1800);
#599=VERTEX_POINT('',#1802);
#600=VERTEX_POINT('',#1805);
#601=VERTEX_POINT('',#1806);
#602=VERTEX_POINT('',#1808);
#603=VERTEX_POINT('',#1810);
#604=VERTEX_POINT('',#1813);
#605=VERTEX_POINT('',#1814);
#606=VERTEX_POINT('',#1816);
#607=VERTEX_POINT('',#1818);
#608=VERTEX_POINT('',#1821);
#609=VERTEX_POINT('',#1822);
#610=VERTEX_POINT('',#1824);
#611=VERTEX_POINT('',#1826);
#612=VERTEX_POINT('',#1829);
#613=VERTEX_POINT('',#1831);
#614=VERTEX_POINT('',#1833);
#615=VERTEX_POINT('',#1835);
#616=VERTEX_POINT('',#1837);
#617=VERTEX_POINT('',#1839);
#618=VERTEX_POINT('',#1842);
#619=VERTEX_POINT('',#1846);
#620=VERTEX_POINT('',#1850);
#621=VERTEX_POINT('',#1854);
#622=VERTEX_POINT('',#1858);
#623=VERTEX_POINT('',#1861);
#624=VERTEX_POINT('',#1864);
#625=VERTEX_POINT('',#1867);
#626=VERTEX_POINT('',#1870);
#627=VERTEX_POINT('',#1873);
#628=VERTEX_POINT('',#1876);
#629=VERTEX_POINT('',#1879);
#630=VERTEX_POINT('',#1882);
#631=VERTEX_POINT('',#1885);
#632=VERTEX_POINT('',#1888);
#633=VERTEX_POINT('',#1891);
#634=VERTEX_POINT('',#1894);
#635=VERTEX_POINT('',#1898);
#636=VERTEX_POINT('',#1902);
#637=VERTEX_POINT('',#1906);
#638=VERTEX_POINT('',#1910);
#639=VERTEX_POINT('',#1914);
#640=LINE('',#1640,#750);
#641=LINE('',#1643,#751);
#642=LINE('',#1645,#752);
#643=LINE('',#1647,#753);
#644=LINE('',#1648,#754);
#645=LINE('',#1651,#755);
#646=LINE('',#1653,#756);
#647=LINE('',#1655,#757);
#648=LINE('',#1656,#758);
#649=LINE('',#1659,#759);
#650=LINE('',#1661,#760);
#651=LINE('',#1663,#761);
#652=LINE('',#1664,#762);
#653=LINE('',#1667,#763);
#654=LINE('',#1669,#764);
#655=LINE('',#1671,#765);
#656=LINE('',#1672,#766);
#657=LINE('',#1675,#767);
#658=LINE('',#1677,#768);
#659=LINE('',#1679,#769);
#660=LINE('',#1681,#770);
#661=LINE('',#1684,#771);
#662=LINE('',#1686,#772);
#663=LINE('',#1688,#773);
#664=LINE('',#1690,#774);
#665=LINE('',#1692,#775);
#666=LINE('',#1695,#776);
#667=LINE('',#1698,#777);
#668=LINE('',#1700,#778);
#669=LINE('',#1702,#779);
#670=LINE('',#1706,#780);
#671=LINE('',#1709,#781);
#672=LINE('',#1711,#782);
#673=LINE('',#1713,#783);
#674=LINE('',#1714,#784);
#675=LINE('',#1717,#785);
#676=LINE('',#1719,#786);
#677=LINE('',#1721,#787);
#678=LINE('',#1723,#788);
#679=LINE('',#1728,#789);
#680=LINE('',#1732,#790);
#681=LINE('',#1736,#791);
#682=LINE('',#1738,#792);
#683=LINE('',#1740,#793);
#684=LINE('',#1742,#794);
#685=LINE('',#1744,#795);
#686=LINE('',#1746,#796);
#687=LINE('',#1748,#797);
#688=LINE('',#1749,#798);
#689=LINE('',#1751,#799);
#690=LINE('',#1753,#800);
#691=LINE('',#1755,#801);
#692=LINE('',#1757,#802);
#693=LINE('',#1760,#803);
#694=LINE('',#1762,#804);
#695=LINE('',#1763,#805);
#696=LINE('',#1765,#806);
#697=LINE('',#1767,#807);
#698=LINE('',#1769,#808);
#699=LINE('',#1770,#809);
#700=LINE('',#1774,#810);
#701=LINE('',#1777,#811);
#702=LINE('',#1779,#812);
#703=LINE('',#1780,#813);
#704=LINE('',#1782,#814);
#705=LINE('',#1784,#815);
#706=LINE('',#1786,#816);
#707=LINE('',#1788,#817);
#708=LINE('',#1790,#818);
#709=LINE('',#1794,#819);
#710=LINE('',#1796,#820);
#711=LINE('',#1799,#821);
#712=LINE('',#1801,#822);
#713=LINE('',#1803,#823);
#714=LINE('',#1804,#824);
#715=LINE('',#1807,#825);
#716=LINE('',#1809,#826);
#717=LINE('',#1811,#827);
#718=LINE('',#1812,#828);
#719=LINE('',#1815,#829);
#720=LINE('',#1817,#830);
#721=LINE('',#1819,#831);
#722=LINE('',#1820,#832);
#723=LINE('',#1823,#833);
#724=LINE('',#1825,#834);
#725=LINE('',#1827,#835);
#726=LINE('',#1918,#836);
#727=LINE('',#1919,#837);
#728=LINE('',#1921,#838);
#729=LINE('',#1923,#839);
#730=LINE('',#1927,#840);
#731=LINE('',#1929,#841);
#732=LINE('',#1931,#842);
#733=LINE('',#1933,#843);
#734=LINE('',#1937,#844);
#735=LINE('',#1938,#845);
#736=LINE('',#1940,#846);
#737=LINE('',#1942,#847);
#738=LINE('',#1945,#848);
#739=LINE('',#1946,#849);
#740=LINE('',#1948,#850);
#741=LINE('',#1950,#851);
#742=LINE('',#1953,#852);
#743=LINE('',#1954,#853);
#744=LINE('',#1956,#854);
#745=LINE('',#1958,#855);
#746=LINE('',#1961,#856);
#747=LINE('',#1962,#857);
#748=LINE('',#1964,#858);
#749=LINE('',#1966,#859);
#750=VECTOR('',#1316,1000.);
#751=VECTOR('',#1317,1000.);
#752=VECTOR('',#1318,1000.);
#753=VECTOR('',#1319,1000.);
#754=VECTOR('',#1320,1000.);
#755=VECTOR('',#1321,1000.);
#756=VECTOR('',#1322,1000.);
#757=VECTOR('',#1323,1000.);
#758=VECTOR('',#1324,1000.);
#759=VECTOR('',#1325,1000.);
#760=VECTOR('',#1326,1000.);
#761=VECTOR('',#1327,1000.);
#762=VECTOR('',#1328,1000.);
#763=VECTOR('',#1329,1000.);
#764=VECTOR('',#1330,1000.);
#765=VECTOR('',#1331,1000.);
#766=VECTOR('',#1332,1000.);
#767=VECTOR('',#1333,1000.);
#768=VECTOR('',#1334,1000.);
#769=VECTOR('',#1335,1000.);
#770=VECTOR('',#1338,1000.);
#771=VECTOR('',#1339,1000.);
#772=VECTOR('',#1340,1000.);
#773=VECTOR('',#1341,1000.);
#774=VECTOR('',#1342,1000.);
#775=VECTOR('',#1343,1000.);
#776=VECTOR('',#1346,1000.);
#777=VECTOR('',#1347,1000.);
#778=VECTOR('',#1348,1000.);
#779=VECTOR('',#1349,1000.);
#780=VECTOR('',#1354,1000.);
#781=VECTOR('',#1355,1000.);
#782=VECTOR('',#1356,1000.);
#783=VECTOR('',#1357,1000.);
#784=VECTOR('',#1358,1000.);
#785=VECTOR('',#1359,1000.);
#786=VECTOR('',#1360,1000.);
#787=VECTOR('',#1361,1000.);
#788=VECTOR('',#1364,1000.);
#789=VECTOR('',#1367,1000.);
#790=VECTOR('',#1370,1000.);
#791=VECTOR('',#1375,1000.);
#792=VECTOR('',#1376,1000.);
#793=VECTOR('',#1377,1000.);
#794=VECTOR('',#1380,1000.);
#795=VECTOR('',#1381,1000.);
#796=VECTOR('',#1382,1000.);
#797=VECTOR('',#1383,1000.);
#798=VECTOR('',#1384,1000.);
#799=VECTOR('',#1385,1000.);
#800=VECTOR('',#1386,1000.);
#801=VECTOR('',#1387,1000.);
#802=VECTOR('',#1390,1000.);
#803=VECTOR('',#1391,1000.);
#804=VECTOR('',#1392,1000.);
#805=VECTOR('',#1393,1000.);
#806=VECTOR('',#1394,1000.);
#807=VECTOR('',#1395,1000.);
#808=VECTOR('',#1396,1000.);
#809=VECTOR('',#1397,1000.);
#810=VECTOR('',#1402,1000.);
#811=VECTOR('',#1403,1000.);
#812=VECTOR('',#1404,1000.);
#813=VECTOR('',#1405,1000.);
#814=VECTOR('',#1406,1000.);
#815=VECTOR('',#1409,1000.);
#816=VECTOR('',#1410,1000.);
#817=VECTOR('',#1413,1000.);
#818=VECTOR('',#1414,1000.);
#819=VECTOR('',#1419,1000.);
#820=VECTOR('',#1422,1000.);
#821=VECTOR('',#1423,1000.);
#822=VECTOR('',#1424,1000.);
#823=VECTOR('',#1425,1000.);
#824=VECTOR('',#1426,1000.);
#825=VECTOR('',#1427,1000.);
#826=VECTOR('',#1428,1000.);
#827=VECTOR('',#1429,1000.);
#828=VECTOR('',#1430,1000.);
#829=VECTOR('',#1431,1000.);
#830=VECTOR('',#1432,1000.);
#831=VECTOR('',#1433,1000.);
#832=VECTOR('',#1434,1000.);
#833=VECTOR('',#1435,1000.);
#834=VECTOR('',#1436,1000.);
#835=VECTOR('',#1437,1000.);
#836=VECTOR('',#1562,1000.);
#837=VECTOR('',#1563,1000.);
#838=VECTOR('',#1566,1000.);
#839=VECTOR('',#1569,1000.);
#840=VECTOR('',#1576,1000.);
#841=VECTOR('',#1579,1000.);
#842=VECTOR('',#1582,1000.);
#843=VECTOR('',#1585,1000.);
#844=VECTOR('',#1592,1000.);
#845=VECTOR('',#1593,1000.);
#846=VECTOR('',#1596,1000.);
#847=VECTOR('',#1599,1000.);
#848=VECTOR('',#1604,1000.);
#849=VECTOR('',#1605,1000.);
#850=VECTOR('',#1608,1000.);
#851=VECTOR('',#1611,1000.);
#852=VECTOR('',#1616,1000.);
#853=VECTOR('',#1617,1000.);
#854=VECTOR('',#1620,1000.);
#855=VECTOR('',#1623,1000.);
#856=VECTOR('',#1628,1000.);
#857=VECTOR('',#1629,1000.);
#858=VECTOR('',#1632,1000.);
#859=VECTOR('',#1635,1000.);
#860=EDGE_LOOP('',(#78,#79,#80,#81));
#861=EDGE_LOOP('',(#82,#83,#84,#85));
#862=EDGE_LOOP('',(#86,#87,#88,#89));
#863=EDGE_LOOP('',(#90,#91,#92,#93));
#864=EDGE_LOOP('',(#94,#95,#96,#97));
#865=EDGE_LOOP('',(#98,#99,#100,#101,#102,#103));
#866=EDGE_LOOP('',(#104));
#867=EDGE_LOOP('',(#105,#106,#107,#108));
#868=EDGE_LOOP('',(#109));
#869=EDGE_LOOP('',(#110,#111,#112,#113));
#870=EDGE_LOOP('',(#114,#115,#116,#117));
#871=EDGE_LOOP('',(#118,#119,#120,#121,#122,#123,#124,#125));
#872=EDGE_LOOP('',(#126,#127,#128,#129));
#873=EDGE_LOOP('',(#130,#131,#132,#133,#134,#135,#136,#137,#138,#139));
#874=EDGE_LOOP('',(#140,#141,#142,#143,#144,#145,#146,#147,#148,#149));
#875=EDGE_LOOP('',(#150));
#876=EDGE_LOOP('',(#151,#152,#153,#154,#155,#156));
#877=EDGE_LOOP('',(#157,#158,#159,#160));
#878=EDGE_LOOP('',(#161,#162,#163,#164));
#879=EDGE_LOOP('',(#165));
#880=EDGE_LOOP('',(#166,#167,#168,#169));
#881=EDGE_LOOP('',(#170,#171,#172,#173));
#882=EDGE_LOOP('',(#174,#175,#176,#177));
#883=EDGE_LOOP('',(#178,#179,#180,#181));
#884=EDGE_LOOP('',(#182,#183,#184,#185));
#885=EDGE_LOOP('',(#186));
#886=EDGE_LOOP('',(#187));
#887=EDGE_LOOP('',(#188));
#888=EDGE_LOOP('',(#189));
#889=EDGE_LOOP('',(#190));
#890=EDGE_LOOP('',(#191));
#891=EDGE_LOOP('',(#192,#193,#194,#195));
#892=EDGE_LOOP('',(#196,#197,#198,#199,#200,#201,#202));
#893=EDGE_LOOP('',(#203,#204,#205,#206,#207,#208,#209));
#894=EDGE_LOOP('',(#210,#211,#212,#213,#214,#215,#216));
#895=EDGE_LOOP('',(#217,#218,#219,#220,#221,#222,#223));
#896=EDGE_LOOP('',(#224));
#897=EDGE_LOOP('',(#225));
#898=EDGE_LOOP('',(#226));
#899=EDGE_LOOP('',(#227));
#900=EDGE_LOOP('',(#228));
#901=EDGE_LOOP('',(#229));
#902=EDGE_LOOP('',(#230));
#903=EDGE_LOOP('',(#231));
#904=EDGE_LOOP('',(#232));
#905=EDGE_LOOP('',(#233));
#906=EDGE_LOOP('',(#234));
#907=EDGE_LOOP('',(#235));
#908=EDGE_LOOP('',(#236));
#909=EDGE_LOOP('',(#237));
#910=EDGE_LOOP('',(#238));
#911=EDGE_LOOP('',(#239));
#912=EDGE_LOOP('',(#240));
#913=EDGE_LOOP('',(#241));
#914=EDGE_LOOP('',(#242));
#915=EDGE_LOOP('',(#243));
#916=EDGE_LOOP('',(#244));
#917=EDGE_LOOP('',(#245));
#918=EDGE_LOOP('',(#246));
#919=EDGE_LOOP('',(#247));
#920=EDGE_LOOP('',(#248));
#921=EDGE_LOOP('',(#249));
#922=EDGE_LOOP('',(#250));
#923=EDGE_LOOP('',(#251));
#924=EDGE_LOOP('',(#252));
#925=EDGE_LOOP('',(#253));
#926=EDGE_LOOP('',(#254));
#927=EDGE_LOOP('',(#255));
#928=EDGE_LOOP('',(#256));
#929=EDGE_LOOP('',(#257));
#930=EDGE_LOOP('',(#258));
#931=EDGE_LOOP('',(#259));
#932=EDGE_LOOP('',(#260));
#933=EDGE_LOOP('',(#261));
#934=EDGE_LOOP('',(#262));
#935=EDGE_LOOP('',(#263));
#936=EDGE_LOOP('',(#264));
#937=EDGE_LOOP('',(#265));
#938=EDGE_LOOP('',(#266));
#939=EDGE_LOOP('',(#267));
#940=EDGE_LOOP('',(#268,#269,#270,#271));
#941=EDGE_LOOP('',(#272,#273,#274,#275));
#942=EDGE_LOOP('',(#276,#277,#278,#279));
#943=EDGE_LOOP('',(#280,#281,#282,#283));
#944=EDGE_LOOP('',(#284));
#945=EDGE_LOOP('',(#285));
#946=EDGE_LOOP('',(#286,#287,#288,#289));
#947=EDGE_LOOP('',(#290,#291,#292,#293,#294,#295));
#948=EDGE_LOOP('',(#296,#297,#298,#299));
#949=EDGE_LOOP('',(#300,#301,#302,#303,#304,#305));
#950=EDGE_LOOP('',(#306,#307,#308,#309));
#951=EDGE_LOOP('',(#310,#311,#312,#313));
#952=EDGE_LOOP('',(#314,#315,#316,#317));
#953=EDGE_LOOP('',(#318,#319,#320,#321));
#954=EDGE_LOOP('',(#322,#323,#324,#325));
#955=EDGE_LOOP('',(#326,#327,#328,#329));
#956=EDGE_LOOP('',(#330,#331,#332,#333));
#957=EDGE_LOOP('',(#334,#335,#336,#337));
#958=EDGE_LOOP('',(#338,#339,#340,#341));
#959=EDGE_LOOP('',(#342,#343,#344,#345));
#960=EDGE_LOOP('',(#346,#347,#348,#349));
#961=EDGE_LOOP('',(#350,#351,#352,#353));
#962=EDGE_LOOP('',(#354,#355,#356,#357));
#963=EDGE_LOOP('',(#358,#359,#360,#361));
#964=EDGE_LOOP('',(#362,#363,#364,#365));
#965=EDGE_LOOP('',(#366,#367,#368,#369));
#966=EDGE_LOOP('',(#370,#371,#372,#373));
#967=EDGE_LOOP('',(#374,#375,#376,#377));
#968=FACE_BOUND('',#860,.T.);
#969=FACE_BOUND('',#861,.T.);
#970=FACE_BOUND('',#862,.T.);
#971=FACE_BOUND('',#863,.T.);
#972=FACE_BOUND('',#864,.T.);
#973=FACE_BOUND('',#865,.T.);
#974=FACE_BOUND('',#866,.T.);
#975=FACE_BOUND('',#867,.T.);
#976=FACE_BOUND('',#868,.T.);
#977=FACE_BOUND('',#869,.T.);
#978=FACE_BOUND('',#870,.T.);
#979=FACE_BOUND('',#871,.T.);
#980=FACE_BOUND('',#872,.T.);
#981=FACE_BOUND('',#873,.T.);
#982=FACE_BOUND('',#874,.T.);
#983=FACE_BOUND('',#875,.T.);
#984=FACE_BOUND('',#876,.T.);
#985=FACE_BOUND('',#877,.T.);
#986=FACE_BOUND('',#878,.T.);
#987=FACE_BOUND('',#879,.T.);
#988=FACE_BOUND('',#880,.T.);
#989=FACE_BOUND('',#881,.T.);
#990=FACE_BOUND('',#882,.T.);
#991=FACE_BOUND('',#883,.T.);
#992=FACE_BOUND('',#884,.T.);
#993=FACE_BOUND('',#885,.T.);
#994=FACE_BOUND('',#886,.T.);
#995=FACE_BOUND('',#887,.T.);
#996=FACE_BOUND('',#888,.T.);
#997=FACE_BOUND('',#889,.T.);
#998=FACE_BOUND('',#890,.T.);
#999=FACE_BOUND('',#891,.T.);
#1000=FACE_BOUND('',#892,.T.);
#1001=FACE_BOUND('',#893,.T.);
#1002=FACE_BOUND('',#894,.T.);
#1003=FACE_BOUND('',#895,.T.);
#1004=FACE_BOUND('',#896,.T.);
#1005=FACE_BOUND('',#897,.T.);
#1006=FACE_BOUND('',#898,.T.);
#1007=FACE_BOUND('',#899,.T.);
#1008=FACE_BOUND('',#900,.T.);
#1009=FACE_BOUND('',#901,.T.);
#1010=FACE_BOUND('',#902,.T.);
#1011=FACE_BOUND('',#903,.T.);
#1012=FACE_BOUND('',#904,.T.);
#1013=FACE_BOUND('',#905,.T.);
#1014=FACE_BOUND('',#906,.T.);
#1015=FACE_BOUND('',#907,.T.);
#1016=FACE_BOUND('',#908,.T.);
#1017=FACE_BOUND('',#909,.T.);
#1018=FACE_BOUND('',#910,.T.);
#1019=FACE_BOUND('',#911,.T.);
#1020=FACE_BOUND('',#912,.T.);
#1021=FACE_BOUND('',#913,.T.);
#1022=FACE_BOUND('',#914,.T.);
#1023=FACE_BOUND('',#915,.T.);
#1024=FACE_BOUND('',#916,.T.);
#1025=FACE_BOUND('',#917,.T.);
#1026=FACE_BOUND('',#918,.T.);
#1027=FACE_BOUND('',#919,.T.);
#1028=FACE_BOUND('',#920,.T.);
#1029=FACE_BOUND('',#921,.T.);
#1030=FACE_BOUND('',#922,.T.);
#1031=FACE_BOUND('',#923,.T.);
#1032=FACE_BOUND('',#924,.T.);
#1033=FACE_BOUND('',#925,.T.);
#1034=FACE_BOUND('',#926,.T.);
#1035=FACE_BOUND('',#927,.T.);
#1036=FACE_BOUND('',#928,.T.);
#1037=FACE_BOUND('',#929,.T.);
#1038=FACE_BOUND('',#930,.T.);
#1039=FACE_BOUND('',#931,.T.);
#1040=FACE_BOUND('',#932,.T.);
#1041=FACE_BOUND('',#933,.T.);
#1042=FACE_BOUND('',#934,.T.);
#1043=FACE_BOUND('',#935,.T.);
#1044=FACE_BOUND('',#936,.T.);
#1045=FACE_BOUND('',#937,.T.);
#1046=FACE_BOUND('',#938,.T.);
#1047=FACE_BOUND('',#939,.T.);
#1048=FACE_BOUND('',#940,.T.);
#1049=FACE_BOUND('',#941,.T.);
#1050=FACE_BOUND('',#942,.T.);
#1051=FACE_BOUND('',#943,.T.);
#1052=FACE_BOUND('',#944,.T.);
#1053=FACE_BOUND('',#945,.T.);
#1054=FACE_BOUND('',#946,.T.);
#1055=FACE_BOUND('',#947,.T.);
#1056=FACE_BOUND('',#948,.T.);
#1057=FACE_BOUND('',#949,.T.);
#1058=FACE_BOUND('',#950,.T.);
#1059=FACE_BOUND('',#951,.T.);
#1060=FACE_BOUND('',#952,.T.);
#1061=FACE_BOUND('',#953,.T.);
#1062=FACE_BOUND('',#954,.T.);
#1063=FACE_BOUND('',#955,.T.);
#1064=FACE_BOUND('',#956,.T.);
#1065=FACE_BOUND('',#957,.T.);
#1066=FACE_BOUND('',#958,.T.);
#1067=FACE_BOUND('',#959,.T.);
#1068=FACE_BOUND('',#960,.T.);
#1069=FACE_BOUND('',#961,.T.);
#1070=FACE_BOUND('',#962,.T.);
#1071=FACE_BOUND('',#963,.T.);
#1072=FACE_BOUND('',#964,.T.);
#1073=FACE_BOUND('',#965,.T.);
#1074=FACE_BOUND('',#966,.T.);
#1075=FACE_BOUND('',#967,.T.);
#1076=PLANE('',#1205);
#1077=PLANE('',#1206);
#1078=PLANE('',#1208);
#1079=PLANE('',#1210);
#1080=PLANE('',#1215);
#1081=PLANE('',#1216);
#1082=PLANE('',#1217);
#1083=PLANE('',#1219);
#1084=PLANE('',#1220);
#1085=PLANE('',#1221);
#1086=PLANE('',#1223);
#1087=PLANE('',#1244);
#1088=PLANE('',#1248);
#1089=PLANE('',#1252);
#1090=PLANE('',#1256);
#1091=PLANE('',#1260);
#1092=PLANE('',#1264);
#1093=PLANE('',#1268);
#1094=PLANE('',#1271);
#1095=PLANE('',#1274);
#1096=PLANE('',#1277);
#1097=PLANE('',#1280);
#1098=PLANE('',#1283);
#1099=PLANE('',#1285);
#1100=PLANE('',#1286);
#1101=PLANE('',#1287);
#1102=PLANE('',#1288);
#1103=PLANE('',#1290);
#1104=PLANE('',#1291);
#1105=PLANE('',#1292);
#1106=PLANE('',#1293);
#1107=PLANE('',#1294);
#1108=PLANE('',#1295);
#1109=PLANE('',#1296);
#1110=PLANE('',#1297);
#1111=PLANE('',#1298);
#1112=PLANE('',#1299);
#1113=PLANE('',#1300);
#1114=PLANE('',#1301);
#1115=PLANE('',#1302);
#1116=PLANE('',#1303);
#1117=PLANE('',#1304);
#1118=PLANE('',#1305);
#1119=PLANE('',#1306);
#1120=PLANE('',#1307);
#1121=PLANE('',#1308);
#1122=PLANE('',#1309);
#1123=PLANE('',#1310);
#1124=PLANE('',#1311);
#1125=ADVANCED_FACE('',(#968,#969,#970,#971,#972),#1076,.F.);
#1126=ADVANCED_FACE('',(#973,#974,#975),#1077,.F.);
#1127=ADVANCED_FACE('',(#976,#977,#978),#1078,.T.);
#1128=ADVANCED_FACE('',(#979,#980),#1079,.T.);
#1129=ADVANCED_FACE('',(#981),#1080,.T.);
#1130=ADVANCED_FACE('',(#982),#1081,.F.);
#1131=ADVANCED_FACE('',(#983,#984),#1082,.T.);
#1132=ADVANCED_FACE('',(#985),#1083,.F.);
#1133=ADVANCED_FACE('',(#986),#1084,.T.);
#1134=ADVANCED_FACE('',(#987,#988),#1085,.F.);
#1135=ADVANCED_FACE('',(#989,#990,#991,#992,#993,#994,#995,#996,#997,#998,
#999),#1086,.T.);
#1136=ADVANCED_FACE('',(#1000),#24,.T.);
#1137=ADVANCED_FACE('',(#1001),#25,.T.);
#1138=ADVANCED_FACE('',(#1002),#26,.T.);
#1139=ADVANCED_FACE('',(#1003),#27,.T.);
#1140=ADVANCED_FACE('',(#1004,#1005),#28,.T.);
#1141=ADVANCED_FACE('',(#1006,#1007),#1087,.T.);
#1142=ADVANCED_FACE('',(#1008,#1009),#29,.T.);
#1143=ADVANCED_FACE('',(#1010,#1011),#1088,.T.);
#1144=ADVANCED_FACE('',(#1012,#1013),#30,.T.);
#1145=ADVANCED_FACE('',(#1014,#1015),#1089,.T.);
#1146=ADVANCED_FACE('',(#1016,#1017),#31,.T.);
#1147=ADVANCED_FACE('',(#1018,#1019),#1090,.T.);
#1148=ADVANCED_FACE('',(#1020,#1021),#32,.T.);
#1149=ADVANCED_FACE('',(#1022,#1023),#1091,.T.);
#1150=ADVANCED_FACE('',(#1024,#1025),#33,.T.);
#1151=ADVANCED_FACE('',(#1026,#1027),#1092,.T.);
#1152=ADVANCED_FACE('',(#1028,#1029),#34,.F.);
#1153=ADVANCED_FACE('',(#1030),#1093,.T.);
#1154=ADVANCED_FACE('',(#1031,#1032),#35,.F.);
#1155=ADVANCED_FACE('',(#1033),#1094,.T.);
#1156=ADVANCED_FACE('',(#1034,#1035),#36,.F.);
#1157=ADVANCED_FACE('',(#1036),#1095,.T.);
#1158=ADVANCED_FACE('',(#1037,#1038),#37,.F.);
#1159=ADVANCED_FACE('',(#1039),#1096,.T.);
#1160=ADVANCED_FACE('',(#1040,#1041),#38,.F.);
#1161=ADVANCED_FACE('',(#1042),#1097,.T.);
#1162=ADVANCED_FACE('',(#1043,#1044),#39,.F.);
#1163=ADVANCED_FACE('',(#1045),#1098,.T.);
#1164=ADVANCED_FACE('',(#1046,#1047),#40,.F.);
#1165=ADVANCED_FACE('',(#1048),#1099,.T.);
#1166=ADVANCED_FACE('',(#1049),#1100,.F.);
#1167=ADVANCED_FACE('',(#1050),#1101,.F.);
#1168=ADVANCED_FACE('',(#1051),#1102,.T.);
#1169=ADVANCED_FACE('',(#1052,#1053),#41,.F.);
#1170=ADVANCED_FACE('',(#1054),#1103,.T.);
#1171=ADVANCED_FACE('',(#1055),#1104,.F.);
#1172=ADVANCED_FACE('',(#1056),#1105,.F.);
#1173=ADVANCED_FACE('',(#1057),#1106,.F.);
#1174=ADVANCED_FACE('',(#1058),#1107,.T.);
#1175=ADVANCED_FACE('',(#1059),#1108,.F.);
#1176=ADVANCED_FACE('',(#1060),#1109,.F.);
#1177=ADVANCED_FACE('',(#1061),#1110,.T.);
#1178=ADVANCED_FACE('',(#1062),#1111,.T.);
#1179=ADVANCED_FACE('',(#1063),#1112,.F.);
#1180=ADVANCED_FACE('',(#1064),#1113,.F.);
#1181=ADVANCED_FACE('',(#1065),#1114,.T.);
#1182=ADVANCED_FACE('',(#1066),#1115,.T.);
#1183=ADVANCED_FACE('',(#1067),#1116,.F.);
#1184=ADVANCED_FACE('',(#1068),#1117,.F.);
#1185=ADVANCED_FACE('',(#1069),#1118,.T.);
#1186=ADVANCED_FACE('',(#1070),#1119,.T.);
#1187=ADVANCED_FACE('',(#1071),#1120,.F.);
#1188=ADVANCED_FACE('',(#1072),#1121,.F.);
#1189=ADVANCED_FACE('',(#1073),#1122,.T.);
#1190=ADVANCED_FACE('',(#1074),#1123,.T.);
#1191=ADVANCED_FACE('',(#1075),#1124,.F.);
#1192=CLOSED_SHELL('',(#1125,#1126,#1127,#1128,#1129,#1130,#1131,#1132,
#1133,#1134,#1135,#1136,#1137,#1138,#1139,#1140,#1141,#1142,#1143,#1144,
#1145,#1146,#1147,#1148,#1149,#1150,#1151,#1152,#1153,#1154,#1155,#1156,
#1157,#1158,#1159,#1160,#1161,#1162,#1163,#1164,#1165,#1166,#1167,#1168,
#1169,#1170,#1171,#1172,#1173,#1174,#1175,#1176,#1177,#1178,#1179,#1180,
#1181,#1182,#1183,#1184,#1185,#1186,#1187,#1188,#1189,#1190,#1191));
#1193=STYLED_ITEM('',(#1194),#1201);
#1194=PRESENTATION_STYLE_ASSIGNMENT((#1195));
#1195=SURFACE_STYLE_USAGE(.BOTH.,#1196);
#1196=SURFACE_SIDE_STYLE('',(#1197));
#1197=SURFACE_STYLE_FILL_AREA(#1198);
#1198=FILL_AREA_STYLE('',(#1199));
#1199=FILL_AREA_STYLE_COLOUR('',#1200);
#1200=COLOUR_RGB('',0.647058823529412,0.647058823529412,0.647058823529412);
#1201=MANIFOLD_SOLID_BREP('Part 289',#1192);
#1202=SHAPE_DEFINITION_REPRESENTATION(#1974,#1203);
#1203=SHAPE_REPRESENTATION('Part 289',(#1204),#1969);
#1204=AXIS2_PLACEMENT_3D('',#1638,#1312,#1313);
#1205=AXIS2_PLACEMENT_3D('',#1639,#1314,#1315);
#1206=AXIS2_PLACEMENT_3D('',#1680,#1336,#1337);
#1207=AXIS2_PLACEMENT_3D('',#1693,#1344,#1345);
#1208=AXIS2_PLACEMENT_3D('',#1703,#1350,#1351);
#1209=AXIS2_PLACEMENT_3D('',#1704,#1352,#1353);
#1210=AXIS2_PLACEMENT_3D('',#1722,#1362,#1363);
#1211=AXIS2_PLACEMENT_3D('',#1726,#1365,#1366);
#1212=AXIS2_PLACEMENT_3D('',#1730,#1368,#1369);
#1213=AXIS2_PLACEMENT_3D('',#1734,#1371,#1372);
#1214=AXIS2_PLACEMENT_3D('',#1735,#1373,#1374);
#1215=AXIS2_PLACEMENT_3D('',#1741,#1378,#1379);
#1216=AXIS2_PLACEMENT_3D('',#1756,#1388,#1389);
#1217=AXIS2_PLACEMENT_3D('',#1771,#1398,#1399);
#1218=AXIS2_PLACEMENT_3D('',#1772,#1400,#1401);
#1219=AXIS2_PLACEMENT_3D('',#1783,#1407,#1408);
#1220=AXIS2_PLACEMENT_3D('',#1787,#1411,#1412);
#1221=AXIS2_PLACEMENT_3D('',#1791,#1415,#1416);
#1222=AXIS2_PLACEMENT_3D('',#1792,#1417,#1418);
#1223=AXIS2_PLACEMENT_3D('',#1795,#1420,#1421);
#1224=AXIS2_PLACEMENT_3D('',#1828,#1438,#1439);
#1225=AXIS2_PLACEMENT_3D('',#1830,#1440,#1441);
#1226=AXIS2_PLACEMENT_3D('',#1832,#1442,#1443);
#1227=AXIS2_PLACEMENT_3D('',#1834,#1444,#1445);
#1228=AXIS2_PLACEMENT_3D('',#1836,#1446,#1447);
#1229=AXIS2_PLACEMENT_3D('',#1838,#1448,#1449);
#1230=AXIS2_PLACEMENT_3D('',#1840,#1450,#1451);
#1231=AXIS2_PLACEMENT_3D('',#1841,#1452,#1453);
#1232=AXIS2_PLACEMENT_3D('',#1843,#1454,#1455);
#1233=AXIS2_PLACEMENT_3D('',#1844,#1456,#1457);
#1234=AXIS2_PLACEMENT_3D('',#1845,#1458,#1459);
#1235=AXIS2_PLACEMENT_3D('',#1847,#1460,#1461);
#1236=AXIS2_PLACEMENT_3D('',#1848,#1462,#1463);
#1237=AXIS2_PLACEMENT_3D('',#1849,#1464,#1465);
#1238=AXIS2_PLACEMENT_3D('',#1851,#1466,#1467);
#1239=AXIS2_PLACEMENT_3D('',#1852,#1468,#1469);
#1240=AXIS2_PLACEMENT_3D('',#1853,#1470,#1471);
#1241=AXIS2_PLACEMENT_3D('',#1855,#1472,#1473);
#1242=AXIS2_PLACEMENT_3D('',#1856,#1474,#1475);
#1243=AXIS2_PLACEMENT_3D('',#1857,#1476,#1477);
#1244=AXIS2_PLACEMENT_3D('',#1859,#1478,#1479);
#1245=AXIS2_PLACEMENT_3D('',#1860,#1480,#1481);
#1246=AXIS2_PLACEMENT_3D('',#1862,#1482,#1483);
#1247=AXIS2_PLACEMENT_3D('',#1863,#1484,#1485);
#1248=AXIS2_PLACEMENT_3D('',#1865,#1486,#1487);
#1249=AXIS2_PLACEMENT_3D('',#1866,#1488,#1489);
#1250=AXIS2_PLACEMENT_3D('',#1868,#1490,#1491);
#1251=AXIS2_PLACEMENT_3D('',#1869,#1492,#1493);
#1252=AXIS2_PLACEMENT_3D('',#1871,#1494,#1495);
#1253=AXIS2_PLACEMENT_3D('',#1872,#1496,#1497);
#1254=AXIS2_PLACEMENT_3D('',#1874,#1498,#1499);
#1255=AXIS2_PLACEMENT_3D('',#1875,#1500,#1501);
#1256=AXIS2_PLACEMENT_3D('',#1877,#1502,#1503);
#1257=AXIS2_PLACEMENT_3D('',#1878,#1504,#1505);
#1258=AXIS2_PLACEMENT_3D('',#1880,#1506,#1507);
#1259=AXIS2_PLACEMENT_3D('',#1881,#1508,#1509);
#1260=AXIS2_PLACEMENT_3D('',#1883,#1510,#1511);
#1261=AXIS2_PLACEMENT_3D('',#1884,#1512,#1513);
#1262=AXIS2_PLACEMENT_3D('',#1886,#1514,#1515);
#1263=AXIS2_PLACEMENT_3D('',#1887,#1516,#1517);
#1264=AXIS2_PLACEMENT_3D('',#1889,#1518,#1519);
#1265=AXIS2_PLACEMENT_3D('',#1890,#1520,#1521);
#1266=AXIS2_PLACEMENT_3D('',#1892,#1522,#1523);
#1267=AXIS2_PLACEMENT_3D('',#1893,#1524,#1525);
#1268=AXIS2_PLACEMENT_3D('',#1895,#1526,#1527);
#1269=AXIS2_PLACEMENT_3D('',#1896,#1528,#1529);
#1270=AXIS2_PLACEMENT_3D('',#1897,#1530,#1531);
#1271=AXIS2_PLACEMENT_3D('',#1899,#1532,#1533);
#1272=AXIS2_PLACEMENT_3D('',#1900,#1534,#1535);
#1273=AXIS2_PLACEMENT_3D('',#1901,#1536,#1537);
#1274=AXIS2_PLACEMENT_3D('',#1903,#1538,#1539);
#1275=AXIS2_PLACEMENT_3D('',#1904,#1540,#1541);
#1276=AXIS2_PLACEMENT_3D('',#1905,#1542,#1543);
#1277=AXIS2_PLACEMENT_3D('',#1907,#1544,#1545);
#1278=AXIS2_PLACEMENT_3D('',#1908,#1546,#1547);
#1279=AXIS2_PLACEMENT_3D('',#1909,#1548,#1549);
#1280=AXIS2_PLACEMENT_3D('',#1911,#1550,#1551);
#1281=AXIS2_PLACEMENT_3D('',#1912,#1552,#1553);
#1282=AXIS2_PLACEMENT_3D('',#1913,#1554,#1555);
#1283=AXIS2_PLACEMENT_3D('',#1915,#1556,#1557);
#1284=AXIS2_PLACEMENT_3D('',#1916,#1558,#1559);
#1285=AXIS2_PLACEMENT_3D('',#1917,#1560,#1561);
#1286=AXIS2_PLACEMENT_3D('',#1920,#1564,#1565);
#1287=AXIS2_PLACEMENT_3D('',#1922,#1567,#1568);
#1288=AXIS2_PLACEMENT_3D('',#1924,#1570,#1571);
#1289=AXIS2_PLACEMENT_3D('',#1925,#1572,#1573);
#1290=AXIS2_PLACEMENT_3D('',#1926,#1574,#1575);
#1291=AXIS2_PLACEMENT_3D('',#1928,#1577,#1578);
#1292=AXIS2_PLACEMENT_3D('',#1930,#1580,#1581);
#1293=AXIS2_PLACEMENT_3D('',#1932,#1583,#1584);
#1294=AXIS2_PLACEMENT_3D('',#1934,#1586,#1587);
#1295=AXIS2_PLACEMENT_3D('',#1935,#1588,#1589);
#1296=AXIS2_PLACEMENT_3D('',#1936,#1590,#1591);
#1297=AXIS2_PLACEMENT_3D('',#1939,#1594,#1595);
#1298=AXIS2_PLACEMENT_3D('',#1941,#1597,#1598);
#1299=AXIS2_PLACEMENT_3D('',#1943,#1600,#1601);
#1300=AXIS2_PLACEMENT_3D('',#1944,#1602,#1603);
#1301=AXIS2_PLACEMENT_3D('',#1947,#1606,#1607);
#1302=AXIS2_PLACEMENT_3D('',#1949,#1609,#1610);
#1303=AXIS2_PLACEMENT_3D('',#1951,#1612,#1613);
#1304=AXIS2_PLACEMENT_3D('',#1952,#1614,#1615);
#1305=AXIS2_PLACEMENT_3D('',#1955,#1618,#1619);
#1306=AXIS2_PLACEMENT_3D('',#1957,#1621,#1622);
#1307=AXIS2_PLACEMENT_3D('',#1959,#1624,#1625);
#1308=AXIS2_PLACEMENT_3D('',#1960,#1626,#1627);
#1309=AXIS2_PLACEMENT_3D('',#1963,#1630,#1631);
#1310=AXIS2_PLACEMENT_3D('',#1965,#1633,#1634);
#1311=AXIS2_PLACEMENT_3D('',#1967,#1636,#1637);
#1312=DIRECTION('',(0.,0.,1.));
#1313=DIRECTION('',(1.,0.,0.));
#1314=DIRECTION('',(0.,0.,1.));
#1315=DIRECTION('',(1.,0.,0.));
#1316=DIRECTION('',(1.,0.,0.));
#1317=DIRECTION('',(0.,1.,0.));
#1318=DIRECTION('',(1.,0.,0.));
#1319=DIRECTION('',(0.,1.,0.));
#1320=DIRECTION('',(1.,0.,0.));
#1321=DIRECTION('',(0.,1.,0.));
#1322=DIRECTION('',(1.,0.,0.));
#1323=DIRECTION('',(0.,1.,0.));
#1324=DIRECTION('',(1.,0.,0.));
#1325=DIRECTION('',(0.,1.,0.));
#1326=DIRECTION('',(1.,0.,0.));
#1327=DIRECTION('',(0.,1.,0.));
#1328=DIRECTION('',(1.,0.,0.));
#1329=DIRECTION('',(0.,1.,0.));
#1330=DIRECTION('',(1.,0.,0.));
#1331=DIRECTION('',(0.,1.,0.));
#1332=DIRECTION('',(-1.79454152687256E-16,1.,0.));
#1333=DIRECTION('',(-1.,-2.10269512239613E-16,0.));
#1334=DIRECTION('',(-1.79454152687256E-16,1.,0.));
#1335=DIRECTION('',(-1.,-2.10269512239613E-16,0.));
#1336=DIRECTION('',(-1.,-1.79454152687256E-16,0.));
#1337=DIRECTION('',(1.79454152687256E-16,-1.,0.));
#1338=DIRECTION('',(0.,0.,-1.));
#1339=DIRECTION('',(0.,0.,-1.));
#1340=DIRECTION('',(-1.79454152687256E-16,1.,0.));
#1341=DIRECTION('',(0.,0.,1.));
#1342=DIRECTION('',(0.,0.,-1.));
#1343=DIRECTION('',(-1.79454152687256E-16,1.,0.));
#1344=DIRECTION('',(1.,1.79454152687256E-16,0.));
#1345=DIRECTION('',(0.,1.,0.));
#1346=DIRECTION('',(-1.79454152687256E-16,1.,0.));
#1347=DIRECTION('',(0.,0.,-1.));
#1348=DIRECTION('',(-1.79454152687256E-16,1.,0.));
#1349=DIRECTION('',(0.,0.,-1.));
#1350=DIRECTION('',(-1.,-1.79454152687256E-16,0.));
#1351=DIRECTION('',(1.79454152687256E-16,-1.,0.));
#1352=DIRECTION('',(-1.,-1.79454152687256E-16,0.));
#1353=DIRECTION('',(1.79454152687256E-16,-1.,0.));
#1354=DIRECTION('',(-1.79454152687256E-16,1.,0.));
#1355=DIRECTION('',(0.,0.,-1.));
#1356=DIRECTION('',(-1.79454152687256E-16,1.,0.));
#1357=DIRECTION('',(0.,0.,-1.));
#1358=DIRECTION('',(0.,0.,1.));
#1359=DIRECTION('',(1.79454152687256E-16,-1.,0.));
#1360=DIRECTION('',(0.,0.,1.));
#1361=DIRECTION('',(1.79454152687256E-16,-1.,0.));
#1362=DIRECTION('',(0.,0.,1.));
#1363=DIRECTION('',(1.,0.,0.));
#1364=DIRECTION('',(-1.,-2.10269512239613E-16,0.));
#1365=DIRECTION('',(0.,0.,1.));
#1366=DIRECTION('',(1.,0.,0.));
#1367=DIRECTION('',(-1.79454152687256E-16,1.,0.));
#1368=DIRECTION('',(0.,0.,1.));
#1369=DIRECTION('',(1.,0.,0.));
#1370=DIRECTION('',(-1.,-2.10269512239613E-16,0.));
#1371=DIRECTION('',(0.,0.,1.));
#1372=DIRECTION('',(1.,0.,0.));
#1373=DIRECTION('',(0.,0.,1.));
#1374=DIRECTION('',(1.,0.,0.));
#1375=DIRECTION('',(-1.,-2.10269512239613E-16,0.));
#1376=DIRECTION('',(-1.79454152687256E-16,1.,0.));
#1377=DIRECTION('',(-1.,-2.10269512239613E-16,0.));
#1378=DIRECTION('',(2.10269512239613E-16,-1.,0.));
#1379=DIRECTION('',(1.,2.10269512239613E-16,0.));
#1380=DIRECTION('',(0.,0.,-1.));
#1381=DIRECTION('',(0.,0.,1.));
#1382=DIRECTION('',(-1.,-2.10269512239613E-16,0.));
#1383=DIRECTION('',(0.,0.,1.));
#1384=DIRECTION('',(0.,0.,1.));
#1385=DIRECTION('',(-1.,-2.10269512239613E-16,0.));
#1386=DIRECTION('',(0.,0.,-1.));
#1387=DIRECTION('',(0.,0.,-1.));
#1388=DIRECTION('',(2.10269512239613E-16,-1.,0.));
#1389=DIRECTION('',(1.,2.10269512239613E-16,0.));
#1390=DIRECTION('',(-1.,-2.10269512239613E-16,0.));
#1391=DIRECTION('',(0.,0.,-1.));
#1392=DIRECTION('',(0.,0.,-1.));
#1393=DIRECTION('',(0.,0.,-1.));
#1394=DIRECTION('',(0.,0.,1.));
#1395=DIRECTION('',(1.,2.10269512239613E-16,0.));
#1396=DIRECTION('',(0.,0.,1.));
#1397=DIRECTION('',(0.,0.,1.));
#1398=DIRECTION('',(-1.,-1.79454152687256E-16,0.));
#1399=DIRECTION('',(1.79454152687256E-16,-1.,0.));
#1400=DIRECTION('',(-1.,-1.79454152687256E-16,0.));
#1401=DIRECTION('',(0.,-1.,0.));
#1402=DIRECTION('',(1.79454152687256E-16,-1.,0.));
#1403=DIRECTION('',(0.,0.,1.));
#1404=DIRECTION('',(0.,0.,-1.));
#1405=DIRECTION('',(0.,0.,-1.));
#1406=DIRECTION('',(0.,0.,-1.));
#1407=DIRECTION('',(2.10269512239613E-16,-1.,0.));
#1408=DIRECTION('',(1.,2.10269512239613E-16,0.));
#1409=DIRECTION('',(-1.,-2.10269512239613E-16,0.));
#1410=DIRECTION('',(0.,0.,-1.));
#1411=DIRECTION('',(2.10269512239613E-16,-1.,0.));
#1412=DIRECTION('',(1.,2.10269512239613E-16,0.));
#1413=DIRECTION('',(-1.,-2.10269512239613E-16,0.));
#1414=DIRECTION('',(0.,0.,-1.));
#1415=DIRECTION('',(-1.,-1.79454152687256E-16,0.));
#1416=DIRECTION('',(1.79454152687256E-16,-1.,0.));
#1417=DIRECTION('',(-1.,-1.79454152687256E-16,0.));
#1418=DIRECTION('',(1.79454152687256E-16,-1.,0.));
#1419=DIRECTION('',(-1.79454152687256E-16,1.,0.));
#1420=DIRECTION('',(0.,0.,1.));
#1421=DIRECTION('',(1.,0.,0.));
#1422=DIRECTION('',(0.,-1.,0.));
#1423=DIRECTION('',(-1.,0.,0.));
#1424=DIRECTION('',(0.,-1.,0.));
#1425=DIRECTION('',(-1.,0.,0.));
#1426=DIRECTION('',(0.,-1.,0.));
#1427=DIRECTION('',(-1.,0.,0.));
#1428=DIRECTION('',(0.,-1.,0.));
#1429=DIRECTION('',(-1.,0.,0.));
#1430=DIRECTION('',(0.,-1.,0.));
#1431=DIRECTION('',(-1.,0.,0.));
#1432=DIRECTION('',(0.,-1.,0.));
#1433=DIRECTION('',(-1.,0.,0.));
#1434=DIRECTION('',(0.,-1.,0.));
#1435=DIRECTION('',(-1.,0.,0.));
#1436=DIRECTION('',(0.,-1.,0.));
#1437=DIRECTION('',(-1.,0.,0.));
#1438=DIRECTION('',(0.,0.,1.));
#1439=DIRECTION('',(1.,-6.50521303491303E-17,0.));
#1440=DIRECTION('',(0.,0.,1.));
#1441=DIRECTION('',(1.,0.,0.));
#1442=DIRECTION('',(0.,0.,1.));
#1443=DIRECTION('',(1.,0.,0.));
#1444=DIRECTION('',(0.,0.,1.));
#1445=DIRECTION('',(1.,0.,0.));
#1446=DIRECTION('',(0.,0.,1.));
#1447=DIRECTION('',(1.,-6.50521303491303E-17,0.));
#1448=DIRECTION('',(0.,0.,1.));
#1449=DIRECTION('',(1.,0.,0.));
#1450=DIRECTION('',(0.,0.,-1.));
#1451=DIRECTION('',(-1.,0.,0.));
#1452=DIRECTION('',(-0.707106781186548,-1.26893248277245E-16,-0.707106781186548));
#1453=DIRECTION('',(-0.707106781186548,-1.26893248277245E-16,0.707106781186548));
#1454=DIRECTION('',(0.,0.,1.));
#1455=DIRECTION('',(1.,0.,0.));
#1456=DIRECTION('',(0.,0.,1.));
#1457=DIRECTION('',(1.,0.,0.));
#1458=DIRECTION('',(0.,0.,1.));
#1459=DIRECTION('',(1.,0.,0.));
#1460=DIRECTION('',(-0.707106781186548,-1.26893248277245E-16,0.707106781186548));
#1461=DIRECTION('',(0.707106781186548,1.26893248277245E-16,0.707106781186548));
#1462=DIRECTION('',(0.,0.,-1.));
#1463=DIRECTION('',(-1.,0.,0.));
#1464=DIRECTION('',(-0.707106781186548,-1.26893248277245E-16,0.707106781186548));
#1465=DIRECTION('',(0.707106781186548,1.26893248277245E-16,0.707106781186548));
#1466=DIRECTION('',(0.,0.,1.));
#1467=DIRECTION('',(1.,0.,0.));
#1468=DIRECTION('',(0.,0.,1.));
#1469=DIRECTION('',(1.,0.,0.));
#1470=DIRECTION('',(0.,0.,1.));
#1471=DIRECTION('',(1.,0.,0.));
#1472=DIRECTION('',(-0.707106781186548,-1.26893248277245E-16,-0.707106781186548));
#1473=DIRECTION('',(-0.707106781186548,-1.26893248277245E-16,0.707106781186548));
#1474=DIRECTION('',(0.,0.,-1.));
#1475=DIRECTION('',(-1.,0.,0.));
#1476=DIRECTION('',(0.,0.,1.));
#1477=DIRECTION('',(1.,0.,0.));
#1478=DIRECTION('',(0.,0.,1.));
#1479=DIRECTION('',(1.,0.,0.));
#1480=DIRECTION('',(0.,0.,1.));
#1481=DIRECTION('',(1.,0.,0.));
#1482=DIRECTION('',(0.,0.,-1.));
#1483=DIRECTION('',(-1.,0.,0.));
#1484=DIRECTION('',(0.,0.,1.));
#1485=DIRECTION('',(1.,-6.50521303491303E-17,0.));
#1486=DIRECTION('',(0.,0.,1.));
#1487=DIRECTION('',(1.,0.,0.));
#1488=DIRECTION('',(0.,0.,1.));
#1489=DIRECTION('',(1.,-8.34001671142696E-17,0.));
#1490=DIRECTION('',(0.,0.,-1.));
#1491=DIRECTION('',(-1.,0.,0.));
#1492=DIRECTION('',(0.,0.,1.));
#1493=DIRECTION('',(1.,0.,0.));
#1494=DIRECTION('',(0.,0.,1.));
#1495=DIRECTION('',(1.,0.,0.));
#1496=DIRECTION('',(0.,0.,1.));
#1497=DIRECTION('',(1.,0.,0.));
#1498=DIRECTION('',(0.,0.,-1.));
#1499=DIRECTION('',(-1.,0.,0.));
#1500=DIRECTION('',(0.,0.,1.));
#1501=DIRECTION('',(1.,0.,0.));
#1502=DIRECTION('',(0.,0.,1.));
#1503=DIRECTION('',(1.,0.,0.));
#1504=DIRECTION('',(0.,0.,1.));
#1505=DIRECTION('',(1.,0.,0.));
#1506=DIRECTION('',(0.,0.,-1.));
#1507=DIRECTION('',(-1.,0.,0.));
#1508=DIRECTION('',(0.,0.,1.));
#1509=DIRECTION('',(1.,0.,0.));
#1510=DIRECTION('',(0.,0.,1.));
#1511=DIRECTION('',(1.,0.,0.));
#1512=DIRECTION('',(0.,0.,1.));
#1513=DIRECTION('',(1.,0.,0.));
#1514=DIRECTION('',(0.,0.,-1.));
#1515=DIRECTION('',(-1.,0.,0.));
#1516=DIRECTION('',(0.,0.,1.));
#1517=DIRECTION('',(1.,-6.50521303491303E-17,0.));
#1518=DIRECTION('',(0.,0.,1.));
#1519=DIRECTION('',(1.,0.,0.));
#1520=DIRECTION('',(0.,0.,1.));
#1521=DIRECTION('',(1.,-8.34001671142696E-17,0.));
#1522=DIRECTION('',(0.,0.,1.));
#1523=DIRECTION('',(1.,0.,0.));
#1524=DIRECTION('',(0.,0.,1.));
#1525=DIRECTION('',(1.,-8.34001671142696E-17,0.));
#1526=DIRECTION('',(0.,0.,1.));
#1527=DIRECTION('',(1.,0.,0.));
#1528=DIRECTION('',(0.,0.,1.));
#1529=DIRECTION('',(1.,0.,0.));
#1530=DIRECTION('',(0.,0.,1.));
#1531=DIRECTION('',(1.,0.,0.));
#1532=DIRECTION('',(0.,0.,1.));
#1533=DIRECTION('',(1.,0.,0.));
#1534=DIRECTION('',(0.,0.,1.));
#1535=DIRECTION('',(1.,0.,0.));
#1536=DIRECTION('',(0.,0.,1.));
#1537=DIRECTION('',(1.,0.,0.));
#1538=DIRECTION('',(0.,0.,1.));
#1539=DIRECTION('',(1.,0.,0.));
#1540=DIRECTION('',(0.,0.,1.));
#1541=DIRECTION('',(1.,0.,0.));
#1542=DIRECTION('',(0.,0.,1.));
#1543=DIRECTION('',(1.,0.,0.));
#1544=DIRECTION('',(0.,0.,1.));
#1545=DIRECTION('',(1.,0.,0.));
#1546=DIRECTION('',(0.,0.,1.));
#1547=DIRECTION('',(1.,0.,0.));
#1548=DIRECTION('',(0.,0.,1.));
#1549=DIRECTION('',(1.,-8.34001671142696E-17,0.));
#1550=DIRECTION('',(0.,0.,1.));
#1551=DIRECTION('',(1.,0.,0.));
#1552=DIRECTION('',(0.,0.,1.));
#1553=DIRECTION('',(1.,0.,0.));
#1554=DIRECTION('',(0.,0.,1.));
#1555=DIRECTION('',(1.,0.,0.));
#1556=DIRECTION('',(0.,0.,1.));
#1557=DIRECTION('',(1.,0.,0.));
#1558=DIRECTION('',(1.,1.79454152687256E-16,0.));
#1559=DIRECTION('',(-1.79454152687256E-16,1.,0.));
#1560=DIRECTION('',(0.,0.,-1.));
#1561=DIRECTION('',(-1.,0.,0.));
#1562=DIRECTION('',(1.,1.79454152687256E-16,0.));
#1563=DIRECTION('',(1.,1.79454152687256E-16,0.));
#1564=DIRECTION('',(1.79454152687256E-16,-1.,0.));
#1565=DIRECTION('',(1.,1.79454152687256E-16,0.));
#1566=DIRECTION('',(1.,1.79454152687256E-16,0.));
#1567=DIRECTION('',(0.,0.,-1.));
#1568=DIRECTION('',(-1.,0.,0.));
#1569=DIRECTION('',(1.,1.79454152687256E-16,0.));
#1570=DIRECTION('',(1.79454152687256E-16,-1.,0.));
#1571=DIRECTION('',(1.,1.79454152687256E-16,0.));
#1572=DIRECTION('',(-1.,-1.79454152687256E-16,0.));
#1573=DIRECTION('',(1.79454152687256E-16,-1.,0.));
#1574=DIRECTION('',(1.,1.79454152687256E-16,0.));
#1575=DIRECTION('',(-1.79454152687256E-16,1.,0.));
#1576=DIRECTION('',(-1.79454152687256E-16,1.,0.));
#1577=DIRECTION('',(0.,0.,1.));
#1578=DIRECTION('',(1.,0.,0.));
#1579=DIRECTION('',(-1.79454152687256E-16,1.,0.));
#1580=DIRECTION('',(1.,1.79454152687256E-16,0.));
#1581=DIRECTION('',(-1.79454152687256E-16,1.,0.));
#1582=DIRECTION('',(-1.79454152687256E-16,1.,0.));
#1583=DIRECTION('',(0.,0.,1.));
#1584=DIRECTION('',(1.,0.,0.));
#1585=DIRECTION('',(1.79454152687256E-16,-1.,0.));
#1586=DIRECTION('',(-0.707106781186548,-1.26893248277245E-16,-0.707106781186548));
#1587=DIRECTION('',(1.79454152687256E-16,-1.,0.));
#1588=DIRECTION('',(-0.707106781186548,-1.26893248277245E-16,0.707106781186548));
#1589=DIRECTION('',(-1.79454152687256E-16,1.,0.));
#1590=DIRECTION('',(-1.,0.,0.));
#1591=DIRECTION('',(0.,0.,1.));
#1592=DIRECTION('',(0.,0.,-1.));
#1593=DIRECTION('',(0.,0.,-1.));
#1594=DIRECTION('',(0.,1.,0.));
#1595=DIRECTION('',(0.,0.,1.));
#1596=DIRECTION('',(0.,0.,-1.));
#1597=DIRECTION('',(-1.,0.,0.));
#1598=DIRECTION('',(0.,0.,1.));
#1599=DIRECTION('',(0.,0.,-1.));
#1600=DIRECTION('',(0.,1.,0.));
#1601=DIRECTION('',(0.,0.,1.));
#1602=DIRECTION('',(-1.,0.,0.));
#1603=DIRECTION('',(0.,0.,1.));
#1604=DIRECTION('',(0.,0.,-1.));
#1605=DIRECTION('',(0.,0.,-1.));
#1606=DIRECTION('',(0.,1.,0.));
#1607=DIRECTION('',(0.,0.,1.));
#1608=DIRECTION('',(0.,0.,-1.));
#1609=DIRECTION('',(-1.,0.,0.));
#1610=DIRECTION('',(0.,0.,1.));
#1611=DIRECTION('',(0.,0.,-1.));
#1612=DIRECTION('',(0.,1.,0.));
#1613=DIRECTION('',(0.,0.,1.));
#1614=DIRECTION('',(-1.,0.,0.));
#1615=DIRECTION('',(0.,0.,1.));
#1616=DIRECTION('',(0.,0.,-1.));
#1617=DIRECTION('',(0.,0.,-1.));
#1618=DIRECTION('',(0.,1.,0.));
#1619=DIRECTION('',(0.,0.,1.));
#1620=DIRECTION('',(0.,0.,-1.));
#1621=DIRECTION('',(-1.,0.,0.));
#1622=DIRECTION('',(0.,0.,1.));
#1623=DIRECTION('',(0.,0.,-1.));
#1624=DIRECTION('',(0.,1.,0.));
#1625=DIRECTION('',(0.,0.,1.));
#1626=DIRECTION('',(-1.,0.,0.));
#1627=DIRECTION('',(0.,0.,1.));
#1628=DIRECTION('',(0.,0.,-1.));
#1629=DIRECTION('',(0.,0.,-1.));
#1630=DIRECTION('',(0.,1.,0.));
#1631=DIRECTION('',(0.,0.,1.));
#1632=DIRECTION('',(0.,0.,-1.));
#1633=DIRECTION('',(-1.,0.,0.));
#1634=DIRECTION('',(0.,0.,1.));
#1635=DIRECTION('',(0.,0.,-1.));
#1636=DIRECTION('',(0.,1.,0.));
#1637=DIRECTION('',(0.,0.,1.));
#1638=CARTESIAN_POINT('',(0.,0.,0.));
#1639=CARTESIAN_POINT('',(6.93889390390723E-15,0.,-7.8));
#1640=CARTESIAN_POINT('',(1.84037362811535,-48.,-7.8));
#1641=CARTESIAN_POINT('',(-10.6596263718847,-48.,-7.8));
#1642=CARTESIAN_POINT('',(14.3403736281153,-48.,-7.8));
#1643=CARTESIAN_POINT('',(-10.6596263718847,-49.5,-7.8));
#1644=CARTESIAN_POINT('',(-10.6596263718847,-51.,-7.8));
#1645=CARTESIAN_POINT('',(1.84037362811535,-51.,-7.8));
#1646=CARTESIAN_POINT('',(14.3403736281153,-51.,-7.8));
#1647=CARTESIAN_POINT('',(14.3403736281153,-49.5,-7.8));
#1648=CARTESIAN_POINT('',(1.89413254277175,-42.5002627354487,-7.8));
#1649=CARTESIAN_POINT('',(-10.6058674572283,-42.5002627354487,-7.8));
#1650=CARTESIAN_POINT('',(14.3941325427717,-42.5002627354487,-7.8));
#1651=CARTESIAN_POINT('',(-10.6058674572283,-44.0002627354487,-7.8));
#1652=CARTESIAN_POINT('',(-10.6058674572283,-45.5002627354487,-7.8));
#1653=CARTESIAN_POINT('',(1.89413254277175,-45.5002627354487,-7.8));
#1654=CARTESIAN_POINT('',(14.3941325427717,-45.5002627354487,-7.8));
#1655=CARTESIAN_POINT('',(14.3941325427717,-44.0002627354487,-7.8));
#1656=CARTESIAN_POINT('',(1.94789145742814,-37.0005254708973,-7.8));
#1657=CARTESIAN_POINT('',(-10.5521085425719,-37.0005254708973,-7.8));
#1658=CARTESIAN_POINT('',(14.4478914574281,-37.0005254708973,-7.8));
#1659=CARTESIAN_POINT('',(-10.5521085425719,-38.5005254708973,-7.8));
#1660=CARTESIAN_POINT('',(-10.5521085425719,-40.0005254708973,-7.8));
#1661=CARTESIAN_POINT('',(1.94789145742814,-40.0005254708973,-7.8));
#1662=CARTESIAN_POINT('',(14.4478914574281,-40.0005254708973,-7.8));
#1663=CARTESIAN_POINT('',(14.4478914574281,-38.5005254708973,-7.8));
#1664=CARTESIAN_POINT('',(2.00165037208454,-31.5007882063459,-7.8));
#1665=CARTESIAN_POINT('',(-10.4983496279155,-31.5007882063459,-7.8));
#1666=CARTESIAN_POINT('',(14.5016503720845,-31.5007882063459,-7.8));
#1667=CARTESIAN_POINT('',(-10.4983496279155,-33.0007882063459,-7.8));
#1668=CARTESIAN_POINT('',(-10.4983496279155,-34.5007882063459,-7.8));
#1669=CARTESIAN_POINT('',(2.00165037208454,-34.5007882063459,-7.8));
#1670=CARTESIAN_POINT('',(14.5016503720845,-34.5007882063459,-7.8));
#1671=CARTESIAN_POINT('',(14.5016503720845,-33.0007882063459,-7.8));
#1672=CARTESIAN_POINT('',(29.,6.93889390390723E-15,-7.8));
#1673=CARTESIAN_POINT('',(29.,-58.,-7.8));
#1674=CARTESIAN_POINT('',(29.,58.,-7.8));
#1675=CARTESIAN_POINT('',(2.08166817117217E-14,-58.,-7.8));
#1676=CARTESIAN_POINT('',(-29.,-58.,-7.8));
#1677=CARTESIAN_POINT('',(-29.,0.,-7.8));
#1678=CARTESIAN_POINT('',(-29.,58.,-7.8));
#1679=CARTESIAN_POINT('',(0.,58.,-7.8));
#1680=CARTESIAN_POINT('',(33.,6.93889390390723E-15,12.2));
#1681=CARTESIAN_POINT('',(33.,-54.5,-7.8));
#1682=CARTESIAN_POINT('',(33.,-54.5,12.2));
#1683=CARTESIAN_POINT('',(33.,-54.5,-7.8));
#1684=CARTESIAN_POINT('',(33.,-54.5,-10.));
#1685=CARTESIAN_POINT('',(33.,-54.5,-10.));
#1686=CARTESIAN_POINT('',(33.,6.93889390390723E-15,-10.));
#1687=CARTESIAN_POINT('',(33.,54.5,-10.));
#1688=CARTESIAN_POINT('',(33.,54.5,12.2));
#1689=CARTESIAN_POINT('',(33.,54.5,-7.8));
#1690=CARTESIAN_POINT('',(33.,54.5,12.2));
#1691=CARTESIAN_POINT('',(33.,54.5,12.2));
#1692=CARTESIAN_POINT('',(33.,6.93889390390723E-15,12.2));
#1693=CARTESIAN_POINT('',(33.,39.3520865947989,4.150410274191));
#1694=CARTESIAN_POINT('',(33.,42.6020865947989,4.150410274191));
#1695=CARTESIAN_POINT('',(33.,24.7071444839239,8.));
#1696=CARTESIAN_POINT('',(33.,21.2071444839239,8.));
#1697=CARTESIAN_POINT('',(33.,28.2071444839239,8.));
#1698=CARTESIAN_POINT('',(33.,28.2071444839239,4.));
#1699=CARTESIAN_POINT('',(33.,28.2071444839239,0.));
#1700=CARTESIAN_POINT('',(33.,24.7071444839239,0.));
#1701=CARTESIAN_POINT('',(33.,21.2071444839239,0.));
#1702=CARTESIAN_POINT('',(33.,21.2071444839239,4.));
#1703=CARTESIAN_POINT('',(30.75,6.5351220603609E-15,12.2));
#1704=CARTESIAN_POINT('',(30.75,39.3520865947989,4.150410274191));
#1705=CARTESIAN_POINT('',(30.75,36.1020865947989,4.150410274191));
#1706=CARTESIAN_POINT('',(30.75,6.5351220603609E-15,-5.55));
#1707=CARTESIAN_POINT('',(30.75,-55.75,-5.55));
#1708=CARTESIAN_POINT('',(30.75,55.75,-5.55));
#1709=CARTESIAN_POINT('',(30.75,-55.75,12.2));
#1710=CARTESIAN_POINT('',(30.75,-55.75,12.2));
#1711=CARTESIAN_POINT('',(30.75,6.5351220603609E-15,12.2));
#1712=CARTESIAN_POINT('',(30.75,55.75,12.2));
#1713=CARTESIAN_POINT('',(30.75,55.75,12.2));
#1714=CARTESIAN_POINT('',(30.75,28.2071444839239,12.2));
#1715=CARTESIAN_POINT('',(30.75,28.2071444839239,0.));
#1716=CARTESIAN_POINT('',(30.75,28.2071444839239,8.));
#1717=CARTESIAN_POINT('',(30.75,6.5351220603609E-15,8.));
#1718=CARTESIAN_POINT('',(30.75,21.2071444839239,8.));
#1719=CARTESIAN_POINT('',(30.75,21.2071444839239,12.2));
#1720=CARTESIAN_POINT('',(30.75,21.2071444839239,0.));
#1721=CARTESIAN_POINT('',(30.75,6.5351220603609E-15,0.));
#1722=CARTESIAN_POINT('',(6.93889390390723E-15,0.,12.2));
#1723=CARTESIAN_POINT('',(0.,58.,12.2));
#1724=CARTESIAN_POINT('',(29.5,58.,12.2));
#1725=CARTESIAN_POINT('',(-29.5,58.,12.2));
#1726=CARTESIAN_POINT('',(-29.5,54.5,12.2));
#1727=CARTESIAN_POINT('',(-33.,54.5,12.2));
#1728=CARTESIAN_POINT('',(-33.,0.,12.2));
#1729=CARTESIAN_POINT('',(-33.,-54.5,12.2));
#1730=CARTESIAN_POINT('',(-29.5,-54.5,12.2));
#1731=CARTESIAN_POINT('',(-29.5,-58.,12.2));
#1732=CARTESIAN_POINT('',(2.08166817117217E-14,-58.,12.2));
#1733=CARTESIAN_POINT('',(29.5,-58.,12.2));
#1734=CARTESIAN_POINT('',(29.5,-54.5,12.2));
#1735=CARTESIAN_POINT('',(29.5,54.5,12.2));
#1736=CARTESIAN_POINT('',(2.03435753091825E-14,-55.75,12.2));
#1737=CARTESIAN_POINT('',(-30.75,-55.75,12.2));
#1738=CARTESIAN_POINT('',(-30.75,4.03771843546326E-16,12.2));
#1739=CARTESIAN_POINT('',(-30.75,55.75,12.2));
#1740=CARTESIAN_POINT('',(4.73106402539129E-16,55.75,12.2));
#1741=CARTESIAN_POINT('',(2.08166817117217E-14,-58.,12.2));
#1742=CARTESIAN_POINT('',(-29.5,-58.,12.2));
#1743=CARTESIAN_POINT('',(-29.5,-58.,-7.8));
#1744=CARTESIAN_POINT('',(-29.5,-58.,12.2));
#1745=CARTESIAN_POINT('',(-29.5,-58.,-11.8));
#1746=CARTESIAN_POINT('',(2.08166817117217E-14,-58.,-11.8));
#1747=CARTESIAN_POINT('',(-29.,-58.,-11.8));
#1748=CARTESIAN_POINT('',(-29.,-58.,-11.8));
#1749=CARTESIAN_POINT('',(29.,-58.,-11.8));
#1750=CARTESIAN_POINT('',(29.,-58.,-11.8));
#1751=CARTESIAN_POINT('',(2.08166817117217E-14,-58.,-11.8));
#1752=CARTESIAN_POINT('',(29.5,-58.,-11.8));
#1753=CARTESIAN_POINT('',(29.5,-58.,-7.8));
#1754=CARTESIAN_POINT('',(29.5,-58.,-7.8));
#1755=CARTESIAN_POINT('',(29.5,-58.,12.2));
#1756=CARTESIAN_POINT('',(0.,58.,12.2));
#1757=CARTESIAN_POINT('',(0.,58.,-11.8));
#1758=CARTESIAN_POINT('',(-29.,58.,-11.8));
#1759=CARTESIAN_POINT('',(-29.5,58.,-11.8));
#1760=CARTESIAN_POINT('',(-29.5,58.,-7.8));
#1761=CARTESIAN_POINT('',(-29.5,58.,-7.8));
#1762=CARTESIAN_POINT('',(-29.5,58.,12.2));
#1763=CARTESIAN_POINT('',(29.5,58.,12.2));
#1764=CARTESIAN_POINT('',(29.5,58.,-7.8));
#1765=CARTESIAN_POINT('',(29.5,58.,12.2));
#1766=CARTESIAN_POINT('',(29.5,58.,-11.8));
#1767=CARTESIAN_POINT('',(-5.25673780599033E-15,58.,-11.8));
#1768=CARTESIAN_POINT('',(29.,58.,-11.8));
#1769=CARTESIAN_POINT('',(29.,58.,-11.8));
#1770=CARTESIAN_POINT('',(-29.,58.,-11.8));
#1771=CARTESIAN_POINT('',(-33.,0.,12.2));
#1772=CARTESIAN_POINT('',(-33.,-38.2762591527932,3.81746533101565));
#1773=CARTESIAN_POINT('',(-33.,-41.0262591527932,3.81746533101565));
#1774=CARTESIAN_POINT('',(-33.,-58.,-10.));
#1775=CARTESIAN_POINT('',(-33.,54.5,-10.));
#1776=CARTESIAN_POINT('',(-33.,-54.5,-10.));
#1777=CARTESIAN_POINT('',(-33.,-54.5,12.2));
#1778=CARTESIAN_POINT('',(-33.,-54.5,-7.8));
#1779=CARTESIAN_POINT('',(-33.,-54.5,12.2));
#1780=CARTESIAN_POINT('',(-33.,54.5,-7.8));
#1781=CARTESIAN_POINT('',(-33.,54.5,-7.8));
#1782=CARTESIAN_POINT('',(-33.,54.5,-10.));
#1783=CARTESIAN_POINT('',(2.03435753091825E-14,-55.75,12.2));
#1784=CARTESIAN_POINT('',(2.03435753091825E-14,-55.75,-5.55));
#1785=CARTESIAN_POINT('',(-30.75,-55.75,-5.55));
#1786=CARTESIAN_POINT('',(-30.75,-55.75,12.2));
#1787=CARTESIAN_POINT('',(4.73106402539129E-16,55.75,12.2));
#1788=CARTESIAN_POINT('',(4.73106402539129E-16,55.75,-5.55));
#1789=CARTESIAN_POINT('',(-30.75,55.75,-5.55));
#1790=CARTESIAN_POINT('',(-30.75,55.75,12.2));
#1791=CARTESIAN_POINT('',(-30.75,4.03771843546326E-16,12.2));
#1792=CARTESIAN_POINT('',(-30.75,-38.2762591527932,3.81746533101565));
#1793=CARTESIAN_POINT('',(-30.75,-41.0262591527932,3.81746533101565));
#1794=CARTESIAN_POINT('',(-30.75,4.03771843546326E-16,-5.55));
#1795=CARTESIAN_POINT('',(6.93889390390723E-15,0.,-5.55));
#1796=CARTESIAN_POINT('',(-10.6596263718847,0.,-5.55));
#1797=CARTESIAN_POINT('',(-10.6596263718847,-48.,-5.55));
#1798=CARTESIAN_POINT('',(-10.6596263718847,-51.,-5.55));
#1799=CARTESIAN_POINT('',(6.93889390390723E-15,-48.,-5.55));
#1800=CARTESIAN_POINT('',(14.3403736281153,-48.,-5.55));
#1801=CARTESIAN_POINT('',(14.3403736281153,0.,-5.55));
#1802=CARTESIAN_POINT('',(14.3403736281153,-51.,-5.55));
#1803=CARTESIAN_POINT('',(6.93889390390723E-15,-51.,-5.55));
#1804=CARTESIAN_POINT('',(-10.6058674572283,0.,-5.55));
#1805=CARTESIAN_POINT('',(-10.6058674572283,-42.5002627354487,-5.55));
#1806=CARTESIAN_POINT('',(-10.6058674572283,-45.5002627354487,-5.55));
#1807=CARTESIAN_POINT('',(6.93889390390723E-15,-42.5002627354487,-5.55));
#1808=CARTESIAN_POINT('',(14.3941325427717,-42.5002627354487,-5.55));
#1809=CARTESIAN_POINT('',(14.3941325427717,0.,-5.55));
#1810=CARTESIAN_POINT('',(14.3941325427717,-45.5002627354487,-5.55));
#1811=CARTESIAN_POINT('',(6.93889390390723E-15,-45.5002627354487,-5.55));
#1812=CARTESIAN_POINT('',(-10.5521085425719,0.,-5.55));
#1813=CARTESIAN_POINT('',(-10.5521085425719,-37.0005254708973,-5.55));
#1814=CARTESIAN_POINT('',(-10.5521085425719,-40.0005254708973,-5.55));
#1815=CARTESIAN_POINT('',(6.93889390390723E-15,-37.0005254708973,-5.55));
#1816=CARTESIAN_POINT('',(14.4478914574281,-37.0005254708973,-5.55));
#1817=CARTESIAN_POINT('',(14.4478914574281,0.,-5.55));
#1818=CARTESIAN_POINT('',(14.4478914574281,-40.0005254708973,-5.55));
#1819=CARTESIAN_POINT('',(6.93889390390723E-15,-40.0005254708973,-5.55));
#1820=CARTESIAN_POINT('',(-10.4983496279155,0.,-5.55));
#1821=CARTESIAN_POINT('',(-10.4983496279155,-31.5007882063459,-5.55));
#1822=CARTESIAN_POINT('',(-10.4983496279155,-34.5007882063459,-5.55));
#1823=CARTESIAN_POINT('',(6.93889390390723E-15,-31.5007882063459,-5.55));
#1824=CARTESIAN_POINT('',(14.5016503720845,-31.5007882063459,-5.55));
#1825=CARTESIAN_POINT('',(14.5016503720845,0.,-5.55));
#1826=CARTESIAN_POINT('',(14.5016503720845,-34.5007882063459,-5.55));
#1827=CARTESIAN_POINT('',(6.93889390390723E-15,-34.5007882063459,-5.55));
#1828=CARTESIAN_POINT('',(28.,-0.249999999999987,-5.55));
#1829=CARTESIAN_POINT('',(30.5,-0.249999999999987,-5.55));
#1830=CARTESIAN_POINT('',(-26.9,-52.55,-5.55));
#1831=CARTESIAN_POINT('',(-23.9,-52.55,-5.55));
#1832=CARTESIAN_POINT('',(26.9,-52.55,-5.55));
#1833=CARTESIAN_POINT('',(29.9,-52.55,-5.55));
#1834=CARTESIAN_POINT('',(24.25,52.42,-5.55));
#1835=CARTESIAN_POINT('',(27.38,52.42,-5.55));
#1836=CARTESIAN_POINT('',(-28.,-0.25,-5.55));
#1837=CARTESIAN_POINT('',(-25.5,-0.25,-5.55));
#1838=CARTESIAN_POINT('',(-24.25,52.42,-5.55));
#1839=CARTESIAN_POINT('',(-21.12,52.42,-5.55));
#1840=CARTESIAN_POINT('',(-29.5,-54.5,12.2));
#1841=CARTESIAN_POINT('',(-29.5,-54.5,-13.5));
#1842=CARTESIAN_POINT('',(-31.2,-57.5594117081557,-11.8));
#1843=CARTESIAN_POINT('',(-29.5,-54.5,-11.8));
#1844=CARTESIAN_POINT('',(29.5,-54.5,12.2));
#1845=CARTESIAN_POINT('',(29.5,-54.5,-11.8));
#1846=CARTESIAN_POINT('',(31.2,-57.5594117081557,-11.8));
#1847=CARTESIAN_POINT('',(29.5,-54.5,-13.5));
#1848=CARTESIAN_POINT('',(29.5,54.5,12.2));
#1849=CARTESIAN_POINT('',(29.5,54.5,-13.5));
#1850=CARTESIAN_POINT('',(31.2,57.5594117081557,-11.8));
#1851=CARTESIAN_POINT('',(29.5,54.5,-11.8));
#1852=CARTESIAN_POINT('',(-29.5,54.5,12.2));
#1853=CARTESIAN_POINT('',(-29.5,54.5,-11.8));
#1854=CARTESIAN_POINT('',(-31.2,57.5594117081557,-11.8));
#1855=CARTESIAN_POINT('',(-29.5,54.5,-13.5));
#1856=CARTESIAN_POINT('',(-24.25,52.42,-0.55));
#1857=CARTESIAN_POINT('',(-24.25,52.42,-0.55));
#1858=CARTESIAN_POINT('',(-21.12,52.42,-0.55));
#1859=CARTESIAN_POINT('',(6.93889390390723E-15,0.,-0.55));
#1860=CARTESIAN_POINT('',(-24.25,52.42,-0.55));
#1861=CARTESIAN_POINT('',(-22.25,52.42,-0.55));
#1862=CARTESIAN_POINT('',(-28.,-0.25,-0.55));
#1863=CARTESIAN_POINT('',(-28.,-0.25,-0.55));
#1864=CARTESIAN_POINT('',(-25.5,-0.25,-0.55));
#1865=CARTESIAN_POINT('',(6.93889390390723E-15,0.,-0.55));
#1866=CARTESIAN_POINT('',(-28.,-0.25,-0.55));
#1867=CARTESIAN_POINT('',(-26.7,-0.25,-0.55));
#1868=CARTESIAN_POINT('',(24.25,52.42,-0.55));
#1869=CARTESIAN_POINT('',(24.25,52.42,-0.55));
#1870=CARTESIAN_POINT('',(27.38,52.42,-0.55));
#1871=CARTESIAN_POINT('',(6.93889390390723E-15,0.,-0.55));
#1872=CARTESIAN_POINT('',(24.25,52.42,-0.55));
#1873=CARTESIAN_POINT('',(26.25,52.42,-0.55));
#1874=CARTESIAN_POINT('',(26.9,-52.55,-0.55));
#1875=CARTESIAN_POINT('',(26.9,-52.55,-0.55));
#1876=CARTESIAN_POINT('',(29.9,-52.55,-0.55));
#1877=CARTESIAN_POINT('',(6.93889390390723E-15,0.,-0.55));
#1878=CARTESIAN_POINT('',(26.9,-52.55,-0.55));
#1879=CARTESIAN_POINT('',(28.9,-52.55,-0.55));
#1880=CARTESIAN_POINT('',(-26.9,-52.55,-0.55));
#1881=CARTESIAN_POINT('',(-26.9,-52.55,-0.55));
#1882=CARTESIAN_POINT('',(-23.9,-52.55,-0.55));
#1883=CARTESIAN_POINT('',(6.93889390390723E-15,0.,-0.55));
#1884=CARTESIAN_POINT('',(-26.9,-52.55,-0.55));
#1885=CARTESIAN_POINT('',(-24.9,-52.55,-0.55));
#1886=CARTESIAN_POINT('',(28.,-0.249999999999987,-0.55));
#1887=CARTESIAN_POINT('',(28.,-0.249999999999987,-0.55));
#1888=CARTESIAN_POINT('',(30.5,-0.249999999999987,-0.55));
#1889=CARTESIAN_POINT('',(6.93889390390723E-15,0.,-0.55));
#1890=CARTESIAN_POINT('',(28.,-0.249999999999987,-0.55));
#1891=CARTESIAN_POINT('',(29.3,-0.249999999999987,-0.55));
#1892=CARTESIAN_POINT('',(28.,-0.249999999999987,-6.05));
#1893=CARTESIAN_POINT('',(28.,-0.249999999999987,-6.05));
#1894=CARTESIAN_POINT('',(29.3,-0.249999999999987,-6.05));
#1895=CARTESIAN_POINT('',(6.93889390390723E-15,0.499999999999994,-6.05));
#1896=CARTESIAN_POINT('',(-26.9,-52.55,-6.05));
#1897=CARTESIAN_POINT('',(-26.9,-52.55,-6.05));
#1898=CARTESIAN_POINT('',(-24.9,-52.55,-6.05));
#1899=CARTESIAN_POINT('',(6.93889390390723E-15,0.499999999999994,-6.05));
#1900=CARTESIAN_POINT('',(26.9,-52.55,-6.05));
#1901=CARTESIAN_POINT('',(26.9,-52.55,-6.05));
#1902=CARTESIAN_POINT('',(28.9,-52.55,-6.05));
#1903=CARTESIAN_POINT('',(6.93889390390723E-15,0.499999999999994,-6.05));
#1904=CARTESIAN_POINT('',(24.25,52.42,-6.05));
#1905=CARTESIAN_POINT('',(24.25,52.42,-6.05));
#1906=CARTESIAN_POINT('',(26.25,52.42,-6.05));
#1907=CARTESIAN_POINT('',(6.93889390390723E-15,0.499999999999994,-6.05));
#1908=CARTESIAN_POINT('',(-28.,-0.25,-6.05));
#1909=CARTESIAN_POINT('',(-28.,-0.25,-6.05));
#1910=CARTESIAN_POINT('',(-26.7,-0.25,-6.05));
#1911=CARTESIAN_POINT('',(6.93889390390723E-15,0.499999999999994,-6.05));
#1912=CARTESIAN_POINT('',(-24.25,52.42,-6.05));
#1913=CARTESIAN_POINT('',(-24.25,52.42,-6.05));
#1914=CARTESIAN_POINT('',(-22.25,52.42,-6.05));
#1915=CARTESIAN_POINT('',(6.93889390390723E-15,0.499999999999994,-6.05));
#1916=CARTESIAN_POINT('',(26.5,39.3520865947989,4.150410274191));
#1917=CARTESIAN_POINT('',(26.5,24.7071444839239,8.));
#1918=CARTESIAN_POINT('',(26.5,28.2071444839239,8.));
#1919=CARTESIAN_POINT('',(26.5,21.2071444839239,8.));
#1920=CARTESIAN_POINT('',(26.5,21.2071444839239,4.));
#1921=CARTESIAN_POINT('',(26.5,21.2071444839239,0.));
#1922=CARTESIAN_POINT('',(26.5,24.7071444839239,0.));
#1923=CARTESIAN_POINT('',(26.5,28.2071444839239,0.));
#1924=CARTESIAN_POINT('',(26.5,28.2071444839239,4.));
#1925=CARTESIAN_POINT('',(-26.5,-38.2762591527932,3.81746533101565));
#1926=CARTESIAN_POINT('',(-29.,0.,-11.8));
#1927=CARTESIAN_POINT('',(-29.,0.,-11.8));
#1928=CARTESIAN_POINT('',(6.93889390390723E-15,0.,-11.8));
#1929=CARTESIAN_POINT('',(-31.2,58.,-11.8));
#1930=CARTESIAN_POINT('',(29.,6.93889390390723E-15,-11.8));
#1931=CARTESIAN_POINT('',(29.,6.93889390390723E-15,-11.8));
#1932=CARTESIAN_POINT('',(6.93889390390723E-15,0.,-11.8));
#1933=CARTESIAN_POINT('',(31.2,5.59896956384239E-15,-11.8));
#1934=CARTESIAN_POINT('',(-31.2,-5.59896956384239E-15,-11.8));
#1935=CARTESIAN_POINT('',(33.,6.93889390390723E-15,-10.));
#1936=CARTESIAN_POINT('',(-10.4983496279155,-33.0007882063459,-2.8));
#1937=CARTESIAN_POINT('',(-10.4983496279155,-34.5007882063459,-2.8));
#1938=CARTESIAN_POINT('',(-10.4983496279155,-31.5007882063459,-2.8));
#1939=CARTESIAN_POINT('',(2.00165037208454,-34.5007882063459,-2.8));
#1940=CARTESIAN_POINT('',(14.5016503720845,-34.5007882063459,-2.8));
#1941=CARTESIAN_POINT('',(14.5016503720845,-33.0007882063459,-2.8));
#1942=CARTESIAN_POINT('',(14.5016503720845,-31.5007882063459,-2.8));
#1943=CARTESIAN_POINT('',(2.00165037208454,-31.5007882063459,-2.8));
#1944=CARTESIAN_POINT('',(-10.5521085425719,-38.5005254708973,-2.8));
#1945=CARTESIAN_POINT('',(-10.5521085425719,-40.0005254708973,-2.8));
#1946=CARTESIAN_POINT('',(-10.5521085425719,-37.0005254708973,-2.8));
#1947=CARTESIAN_POINT('',(1.94789145742814,-40.0005254708973,-2.8));
#1948=CARTESIAN_POINT('',(14.4478914574281,-40.0005254708973,-2.8));
#1949=CARTESIAN_POINT('',(14.4478914574281,-38.5005254708973,-2.8));
#1950=CARTESIAN_POINT('',(14.4478914574281,-37.0005254708973,-2.8));
#1951=CARTESIAN_POINT('',(1.94789145742814,-37.0005254708973,-2.8));
#1952=CARTESIAN_POINT('',(-10.6058674572283,-44.0002627354487,-2.8));
#1953=CARTESIAN_POINT('',(-10.6058674572283,-45.5002627354487,-2.8));
#1954=CARTESIAN_POINT('',(-10.6058674572283,-42.5002627354487,-2.8));
#1955=CARTESIAN_POINT('',(1.89413254277175,-45.5002627354487,-2.8));
#1956=CARTESIAN_POINT('',(14.3941325427717,-45.5002627354487,-2.8));
#1957=CARTESIAN_POINT('',(14.3941325427717,-44.0002627354487,-2.8));
#1958=CARTESIAN_POINT('',(14.3941325427717,-42.5002627354487,-2.8));
#1959=CARTESIAN_POINT('',(1.89413254277175,-42.5002627354487,-2.8));
#1960=CARTESIAN_POINT('',(-10.6596263718847,-49.5,-2.8));
#1961=CARTESIAN_POINT('',(-10.6596263718847,-51.,-2.8));
#1962=CARTESIAN_POINT('',(-10.6596263718847,-48.,-2.8));
#1963=CARTESIAN_POINT('',(1.84037362811535,-51.,-2.8));
#1964=CARTESIAN_POINT('',(14.3403736281153,-51.,-2.8));
#1965=CARTESIAN_POINT('',(14.3403736281153,-49.5,-2.8));
#1966=CARTESIAN_POINT('',(14.3403736281153,-48.,-2.8));
#1967=CARTESIAN_POINT('',(1.84037362811535,-48.,-2.8));
#1968=MECHANICAL_DESIGN_GEOMETRIC_PRESENTATION_REPRESENTATION('',(#1193),
#1969);
#1969=(
GEOMETRIC_REPRESENTATION_CONTEXT(3)
GLOBAL_UNCERTAINTY_ASSIGNED_CONTEXT((#1970))
GLOBAL_UNIT_ASSIGNED_CONTEXT((#1973,#1972,#1971))
REPRESENTATION_CONTEXT('Part 289','TOP_LEVEL_ASSEMBLY_PART')
);
#1970=UNCERTAINTY_MEASURE_WITH_UNIT(LENGTH_MEASURE(1.E-5),#1973,
'DISTANCE_ACCURACY_VALUE','Maximum Tolerance applied to model');
#1971=(
NAMED_UNIT(*)
SI_UNIT($,.STERADIAN.)
SOLID_ANGLE_UNIT()
);
#1972=(
NAMED_UNIT(*)
PLANE_ANGLE_UNIT()
SI_UNIT($,.RADIAN.)
);
#1973=(
LENGTH_UNIT()
NAMED_UNIT(*)
SI_UNIT(.MILLI.,.METRE.)
);
#1974=PRODUCT_DEFINITION_SHAPE('','',#1975);
#1975=PRODUCT_DEFINITION('','',#1977,#1976);
#1976=PRODUCT_DEFINITION_CONTEXT('',#1983,'design');
#1977=PRODUCT_DEFINITION_FORMATION_WITH_SPECIFIED_SOURCE('','',#1979,
 .NOT_KNOWN.);
#1978=PRODUCT_RELATED_PRODUCT_CATEGORY('','',(#1979));
#1979=PRODUCT('Part 289','Part 289','Part 289',(#1981));
#1980=PRODUCT_CATEGORY('','');
#1981=PRODUCT_CONTEXT('',#1983,'mechanical');
#1982=APPLICATION_PROTOCOL_DEFINITION('international standard',
'automotive_design',2010,#1983);
#1983=APPLICATION_CONTEXT(
'core data for automotive mechanical design processes');
ENDSEC;
END-ISO-10303-21;
