ISO-10303-21;
HEADER;
/* Generated by software containing ST-Developer
 * from STEP Tools, Inc. (www.steptools.com) 
 */
/* OPTION: using custom renumber hook */

FILE_DESCRIPTION(
/* description */ ('STEP AP214',
'CAx-IF Rec.Pracs.---User Defined Attributes---1.5---2016-08-15'),
/* implementation_level */ '2;1');

FILE_NAME(
/* name */ '6ab93f1cb8fc69c267560a64',
/* time_stamp */ '2026-09-27T16:06:53Z',
/* author */ (''),
/* organization */ (''),
/* preprocessor_version */ 'ST-DEVELOPER v20',
/* originating_system */ 'ONSHAPE BY PTC INC, 1.221',
/* authorisation */ '  ');

FILE_SCHEMA (('AUTOMOTIVE_DESIGN {1 0 10303 214 3 1 1}'));
ENDSEC;

DATA;
#10=PROPERTY_DEFINITION_REPRESENTATION(#14,#12);
#11=PROPERTY_DEFINITION_REPRESENTATION(#15,#13);
#12=REPRESENTATION('',(#16),#1131);
#13=REPRESENTATION('',(#17),#1131);
#14=PROPERTY_DEFINITION('pmi validation property','',#1136);
#15=PROPERTY_DEFINITION('pmi validation property','',#1136);
#16=VALUE_REPRESENTATION_ITEM('number of annotations',COUNT_MEASURE(0.));
#17=VALUE_REPRESENTATION_ITEM('number of views',COUNT_MEASURE(0.));
#18=SHAPE_REPRESENTATION_RELATIONSHIP('','',#683,#19);
#19=ADVANCED_BREP_SHAPE_REPRESENTATION('',(#681),#1131);
#20=CONICAL_SURFACE('',#749,2.,0.785398163397448);
#21=CONICAL_SURFACE('',#750,2.,0.785398163397448);
#22=CONICAL_SURFACE('',#751,2.,0.785398163397448);
#23=CONICAL_SURFACE('',#752,2.,0.785398163397448);
#24=CONICAL_SURFACE('',#753,1.3,0.785398163397448);
#25=CONICAL_SURFACE('',#754,1.3,0.785398163397448);
#26=CYLINDRICAL_SURFACE('',#703,3.2);
#27=CYLINDRICAL_SURFACE('',#706,3.2);
#28=CYLINDRICAL_SURFACE('',#709,3.2);
#29=CYLINDRICAL_SURFACE('',#715,2.);
#30=CYLINDRICAL_SURFACE('',#717,2.);
#31=CYLINDRICAL_SURFACE('',#719,2.);
#32=CYLINDRICAL_SURFACE('',#721,2.);
#33=CYLINDRICAL_SURFACE('',#723,2.);
#34=CYLINDRICAL_SURFACE('',#725,2.);
#35=CYLINDRICAL_SURFACE('',#727,2.);
#36=CYLINDRICAL_SURFACE('',#729,2.);
#37=CYLINDRICAL_SURFACE('',#731,1.3);
#38=CYLINDRICAL_SURFACE('',#733,1.3);
#39=CYLINDRICAL_SURFACE('',#735,2.);
#40=CYLINDRICAL_SURFACE('',#737,2.);
#41=CYLINDRICAL_SURFACE('',#740,3.2);
#42=CIRCLE('',#686,3.2);
#43=CIRCLE('',#687,3.2);
#44=CIRCLE('',#688,3.2);
#45=CIRCLE('',#689,3.2);
#46=CIRCLE('',#690,2.);
#47=CIRCLE('',#691,2.);
#48=CIRCLE('',#692,2.);
#49=CIRCLE('',#693,2.);
#50=CIRCLE('',#694,2.);
#51=CIRCLE('',#695,2.);
#52=CIRCLE('',#696,2.);
#53=CIRCLE('',#697,2.);
#54=CIRCLE('',#698,1.3);
#55=CIRCLE('',#699,1.3);
#56=CIRCLE('',#700,2.);
#57=CIRCLE('',#701,2.);
#58=CIRCLE('',#704,3.2);
#59=CIRCLE('',#707,3.2);
#60=CIRCLE('',#710,3.2);
#61=CIRCLE('',#716,2.);
#62=CIRCLE('',#718,2.);
#63=CIRCLE('',#720,2.);
#64=CIRCLE('',#722,2.);
#65=CIRCLE('',#724,2.);
#66=CIRCLE('',#726,2.);
#67=CIRCLE('',#728,2.);
#68=CIRCLE('',#730,2.);
#69=CIRCLE('',#732,1.3);
#70=CIRCLE('',#734,1.3);
#71=CIRCLE('',#736,2.);
#72=CIRCLE('',#738,2.);
#73=CIRCLE('',#741,3.2);
#74=CIRCLE('',#743,2.3);
#75=CIRCLE('',#744,2.3);
#76=CIRCLE('',#745,3.5);
#77=CIRCLE('',#746,3.5);
#78=CIRCLE('',#747,3.5);
#79=CIRCLE('',#748,3.5);
#80=ORIENTED_EDGE('',*,*,#236,.F.);
#81=ORIENTED_EDGE('',*,*,#237,.F.);
#82=ORIENTED_EDGE('',*,*,#238,.T.);
#83=ORIENTED_EDGE('',*,*,#239,.F.);
#84=ORIENTED_EDGE('',*,*,#240,.T.);
#85=ORIENTED_EDGE('',*,*,#241,.F.);
#86=ORIENTED_EDGE('',*,*,#242,.F.);
#87=ORIENTED_EDGE('',*,*,#243,.F.);
#88=ORIENTED_EDGE('',*,*,#244,.T.);
#89=ORIENTED_EDGE('',*,*,#245,.T.);
#90=ORIENTED_EDGE('',*,*,#246,.T.);
#91=ORIENTED_EDGE('',*,*,#247,.T.);
#92=ORIENTED_EDGE('',*,*,#248,.T.);
#93=ORIENTED_EDGE('',*,*,#249,.T.);
#94=ORIENTED_EDGE('',*,*,#250,.T.);
#95=ORIENTED_EDGE('',*,*,#251,.T.);
#96=ORIENTED_EDGE('',*,*,#252,.T.);
#97=ORIENTED_EDGE('',*,*,#253,.T.);
#98=ORIENTED_EDGE('',*,*,#254,.T.);
#99=ORIENTED_EDGE('',*,*,#255,.T.);
#100=ORIENTED_EDGE('',*,*,#256,.F.);
#101=ORIENTED_EDGE('',*,*,#257,.T.);
#102=ORIENTED_EDGE('',*,*,#258,.T.);
#103=ORIENTED_EDGE('',*,*,#259,.F.);
#104=ORIENTED_EDGE('',*,*,#236,.T.);
#105=ORIENTED_EDGE('',*,*,#260,.F.);
#106=ORIENTED_EDGE('',*,*,#261,.F.);
#107=ORIENTED_EDGE('',*,*,#262,.T.);
#108=ORIENTED_EDGE('',*,*,#243,.T.);
#109=ORIENTED_EDGE('',*,*,#263,.F.);
#110=ORIENTED_EDGE('',*,*,#264,.F.);
#111=ORIENTED_EDGE('',*,*,#260,.T.);
#112=ORIENTED_EDGE('',*,*,#242,.T.);
#113=ORIENTED_EDGE('',*,*,#265,.F.);
#114=ORIENTED_EDGE('',*,*,#266,.F.);
#115=ORIENTED_EDGE('',*,*,#263,.T.);
#116=ORIENTED_EDGE('',*,*,#241,.T.);
#117=ORIENTED_EDGE('',*,*,#267,.F.);
#118=ORIENTED_EDGE('',*,*,#268,.F.);
#119=ORIENTED_EDGE('',*,*,#265,.T.);
#120=ORIENTED_EDGE('',*,*,#240,.F.);
#121=ORIENTED_EDGE('',*,*,#269,.F.);
#122=ORIENTED_EDGE('',*,*,#270,.T.);
#123=ORIENTED_EDGE('',*,*,#267,.T.);
#124=ORIENTED_EDGE('',*,*,#239,.T.);
#125=ORIENTED_EDGE('',*,*,#271,.F.);
#126=ORIENTED_EDGE('',*,*,#272,.F.);
#127=ORIENTED_EDGE('',*,*,#269,.T.);
#128=ORIENTED_EDGE('',*,*,#238,.F.);
#129=ORIENTED_EDGE('',*,*,#273,.F.);
#130=ORIENTED_EDGE('',*,*,#274,.T.);
#131=ORIENTED_EDGE('',*,*,#271,.T.);
#132=ORIENTED_EDGE('',*,*,#275,.T.);
#133=ORIENTED_EDGE('',*,*,#276,.F.);
#134=ORIENTED_EDGE('',*,*,#277,.F.);
#135=ORIENTED_EDGE('',*,*,#278,.T.);
#136=ORIENTED_EDGE('',*,*,#277,.T.);
#137=ORIENTED_EDGE('',*,*,#279,.T.);
#138=ORIENTED_EDGE('',*,*,#280,.F.);
#139=ORIENTED_EDGE('',*,*,#281,.F.);
#140=ORIENTED_EDGE('',*,*,#280,.T.);
#141=ORIENTED_EDGE('',*,*,#282,.T.);
#142=ORIENTED_EDGE('',*,*,#283,.F.);
#143=ORIENTED_EDGE('',*,*,#284,.F.);
#144=ORIENTED_EDGE('',*,*,#285,.T.);
#145=ORIENTED_EDGE('',*,*,#244,.F.);
#146=ORIENTED_EDGE('',*,*,#286,.T.);
#147=ORIENTED_EDGE('',*,*,#245,.F.);
#148=ORIENTED_EDGE('',*,*,#287,.T.);
#149=ORIENTED_EDGE('',*,*,#246,.F.);
#150=ORIENTED_EDGE('',*,*,#288,.T.);
#151=ORIENTED_EDGE('',*,*,#247,.F.);
#152=ORIENTED_EDGE('',*,*,#289,.T.);
#153=ORIENTED_EDGE('',*,*,#248,.F.);
#154=ORIENTED_EDGE('',*,*,#290,.T.);
#155=ORIENTED_EDGE('',*,*,#249,.F.);
#156=ORIENTED_EDGE('',*,*,#291,.T.);
#157=ORIENTED_EDGE('',*,*,#250,.F.);
#158=ORIENTED_EDGE('',*,*,#292,.T.);
#159=ORIENTED_EDGE('',*,*,#251,.F.);
#160=ORIENTED_EDGE('',*,*,#293,.T.);
#161=ORIENTED_EDGE('',*,*,#252,.F.);
#162=ORIENTED_EDGE('',*,*,#294,.T.);
#163=ORIENTED_EDGE('',*,*,#253,.F.);
#164=ORIENTED_EDGE('',*,*,#295,.T.);
#165=ORIENTED_EDGE('',*,*,#254,.F.);
#166=ORIENTED_EDGE('',*,*,#296,.T.);
#167=ORIENTED_EDGE('',*,*,#255,.F.);
#168=ORIENTED_EDGE('',*,*,#283,.T.);
#169=ORIENTED_EDGE('',*,*,#297,.F.);
#170=ORIENTED_EDGE('',*,*,#275,.F.);
#171=ORIENTED_EDGE('',*,*,#298,.T.);
#172=ORIENTED_EDGE('',*,*,#237,.T.);
#173=ORIENTED_EDGE('',*,*,#262,.F.);
#174=ORIENTED_EDGE('',*,*,#299,.F.);
#175=ORIENTED_EDGE('',*,*,#273,.T.);
#176=ORIENTED_EDGE('',*,*,#300,.T.);
#177=ORIENTED_EDGE('',*,*,#301,.T.);
#178=ORIENTED_EDGE('',*,*,#302,.T.);
#179=ORIENTED_EDGE('',*,*,#303,.T.);
#180=ORIENTED_EDGE('',*,*,#304,.T.);
#181=ORIENTED_EDGE('',*,*,#305,.T.);
#182=ORIENTED_EDGE('',*,*,#278,.F.);
#183=ORIENTED_EDGE('',*,*,#281,.T.);
#184=ORIENTED_EDGE('',*,*,#284,.T.);
#185=ORIENTED_EDGE('',*,*,#298,.F.);
#186=ORIENTED_EDGE('',*,*,#290,.F.);
#187=ORIENTED_EDGE('',*,*,#289,.F.);
#188=ORIENTED_EDGE('',*,*,#288,.F.);
#189=ORIENTED_EDGE('',*,*,#287,.F.);
#190=ORIENTED_EDGE('',*,*,#286,.F.);
#191=ORIENTED_EDGE('',*,*,#285,.F.);
#192=ORIENTED_EDGE('',*,*,#261,.T.);
#193=ORIENTED_EDGE('',*,*,#264,.T.);
#194=ORIENTED_EDGE('',*,*,#266,.T.);
#195=ORIENTED_EDGE('',*,*,#268,.T.);
#196=ORIENTED_EDGE('',*,*,#270,.F.);
#197=ORIENTED_EDGE('',*,*,#272,.T.);
#198=ORIENTED_EDGE('',*,*,#274,.F.);
#199=ORIENTED_EDGE('',*,*,#299,.T.);
#200=ORIENTED_EDGE('',*,*,#302,.F.);
#201=ORIENTED_EDGE('',*,*,#291,.F.);
#202=ORIENTED_EDGE('',*,*,#303,.F.);
#203=ORIENTED_EDGE('',*,*,#292,.F.);
#204=ORIENTED_EDGE('',*,*,#304,.F.);
#205=ORIENTED_EDGE('',*,*,#295,.F.);
#206=ORIENTED_EDGE('',*,*,#305,.F.);
#207=ORIENTED_EDGE('',*,*,#296,.F.);
#208=ORIENTED_EDGE('',*,*,#300,.F.);
#209=ORIENTED_EDGE('',*,*,#293,.F.);
#210=ORIENTED_EDGE('',*,*,#301,.F.);
#211=ORIENTED_EDGE('',*,*,#294,.F.);
#212=ORIENTED_EDGE('',*,*,#256,.T.);
#213=ORIENTED_EDGE('',*,*,#306,.F.);
#214=ORIENTED_EDGE('',*,*,#307,.F.);
#215=ORIENTED_EDGE('',*,*,#308,.T.);
#216=ORIENTED_EDGE('',*,*,#259,.T.);
#217=ORIENTED_EDGE('',*,*,#309,.F.);
#218=ORIENTED_EDGE('',*,*,#310,.F.);
#219=ORIENTED_EDGE('',*,*,#306,.T.);
#220=ORIENTED_EDGE('',*,*,#258,.F.);
#221=ORIENTED_EDGE('',*,*,#311,.F.);
#222=ORIENTED_EDGE('',*,*,#312,.T.);
#223=ORIENTED_EDGE('',*,*,#309,.T.);
#224=ORIENTED_EDGE('',*,*,#257,.F.);
#225=ORIENTED_EDGE('',*,*,#308,.F.);
#226=ORIENTED_EDGE('',*,*,#313,.T.);
#227=ORIENTED_EDGE('',*,*,#311,.T.);
#228=ORIENTED_EDGE('',*,*,#279,.F.);
#229=ORIENTED_EDGE('',*,*,#276,.T.);
#230=ORIENTED_EDGE('',*,*,#297,.T.);
#231=ORIENTED_EDGE('',*,*,#282,.F.);
#232=ORIENTED_EDGE('',*,*,#307,.T.);
#233=ORIENTED_EDGE('',*,*,#310,.T.);
#234=ORIENTED_EDGE('',*,*,#312,.F.);
#235=ORIENTED_EDGE('',*,*,#313,.F.);
#236=EDGE_CURVE('',#314,#315,#376,.T.);
#237=EDGE_CURVE('',#316,#314,#42,.T.);
#238=EDGE_CURVE('',#316,#317,#377,.T.);
#239=EDGE_CURVE('',#318,#317,#43,.T.);
#240=EDGE_CURVE('',#318,#319,#378,.T.);
#241=EDGE_CURVE('',#320,#319,#44,.T.);
#242=EDGE_CURVE('',#321,#320,#379,.T.);
#243=EDGE_CURVE('',#315,#321,#45,.T.);
#244=EDGE_CURVE('',#322,#322,#46,.T.);
#245=EDGE_CURVE('',#323,#323,#47,.T.);
#246=EDGE_CURVE('',#324,#324,#48,.T.);
#247=EDGE_CURVE('',#325,#325,#49,.T.);
#248=EDGE_CURVE('',#326,#326,#50,.T.);
#249=EDGE_CURVE('',#327,#327,#51,.T.);
#250=EDGE_CURVE('',#328,#328,#52,.T.);
#251=EDGE_CURVE('',#329,#329,#53,.T.);
#252=EDGE_CURVE('',#330,#330,#54,.T.);
#253=EDGE_CURVE('',#331,#331,#55,.T.);
#254=EDGE_CURVE('',#332,#332,#56,.T.);
#255=EDGE_CURVE('',#333,#333,#57,.T.);
#256=EDGE_CURVE('',#334,#335,#380,.T.);
#257=EDGE_CURVE('',#334,#336,#381,.T.);
#258=EDGE_CURVE('',#336,#337,#382,.T.);
#259=EDGE_CURVE('',#335,#337,#383,.T.);
#260=EDGE_CURVE('',#338,#315,#384,.T.);
#261=EDGE_CURVE('',#339,#338,#385,.T.);
#262=EDGE_CURVE('',#339,#314,#386,.T.);
#263=EDGE_CURVE('',#340,#321,#387,.T.);
#264=EDGE_CURVE('',#338,#340,#58,.T.);
#265=EDGE_CURVE('',#341,#320,#388,.T.);
#266=EDGE_CURVE('',#340,#341,#389,.T.);
#267=EDGE_CURVE('',#342,#319,#390,.T.);
#268=EDGE_CURVE('',#341,#342,#59,.T.);
#269=EDGE_CURVE('',#343,#318,#391,.T.);
#270=EDGE_CURVE('',#343,#342,#392,.T.);
#271=EDGE_CURVE('',#344,#317,#393,.T.);
#272=EDGE_CURVE('',#343,#344,#60,.T.);
#273=EDGE_CURVE('',#345,#316,#394,.T.);
#274=EDGE_CURVE('',#345,#344,#395,.T.);
#275=EDGE_CURVE('',#346,#347,#396,.T.);
#276=EDGE_CURVE('',#348,#347,#397,.T.);
#277=EDGE_CURVE('',#349,#348,#398,.T.);
#278=EDGE_CURVE('',#349,#346,#399,.T.);
#279=EDGE_CURVE('',#348,#350,#400,.T.);
#280=EDGE_CURVE('',#351,#350,#401,.T.);
#281=EDGE_CURVE('',#349,#351,#402,.T.);
#282=EDGE_CURVE('',#350,#352,#403,.T.);
#283=EDGE_CURVE('',#353,#352,#404,.T.);
#284=EDGE_CURVE('',#351,#353,#405,.T.);
#285=EDGE_CURVE('',#354,#354,#61,.T.);
#286=EDGE_CURVE('',#355,#355,#62,.T.);
#287=EDGE_CURVE('',#356,#356,#63,.T.);
#288=EDGE_CURVE('',#357,#357,#64,.T.);
#289=EDGE_CURVE('',#358,#358,#65,.T.);
#290=EDGE_CURVE('',#359,#359,#66,.T.);
#291=EDGE_CURVE('',#360,#360,#67,.T.);
#292=EDGE_CURVE('',#361,#361,#68,.T.);
#293=EDGE_CURVE('',#362,#362,#69,.T.);
#294=EDGE_CURVE('',#363,#363,#70,.T.);
#295=EDGE_CURVE('',#364,#364,#71,.T.);
#296=EDGE_CURVE('',#365,#365,#72,.T.);
#297=EDGE_CURVE('',#347,#352,#406,.T.);
#298=EDGE_CURVE('',#346,#353,#407,.T.);
#299=EDGE_CURVE('',#345,#339,#73,.T.);
#300=EDGE_CURVE('',#366,#366,#74,.F.);
#301=EDGE_CURVE('',#367,#367,#75,.F.);
#302=EDGE_CURVE('',#368,#368,#76,.F.);
#303=EDGE_CURVE('',#369,#369,#77,.F.);
#304=EDGE_CURVE('',#370,#370,#78,.F.);
#305=EDGE_CURVE('',#371,#371,#79,.F.);
#306=EDGE_CURVE('',#372,#335,#408,.T.);
#307=EDGE_CURVE('',#373,#372,#409,.T.);
#308=EDGE_CURVE('',#373,#334,#410,.T.);
#309=EDGE_CURVE('',#374,#337,#411,.T.);
#310=EDGE_CURVE('',#372,#374,#412,.T.);
#311=EDGE_CURVE('',#375,#336,#413,.T.);
#312=EDGE_CURVE('',#375,#374,#414,.T.);
#313=EDGE_CURVE('',#373,#375,#415,.T.);
#314=VERTEX_POINT('',#955);
#315=VERTEX_POINT('',#956);
#316=VERTEX_POINT('',#958);
#317=VERTEX_POINT('',#960);
#318=VERTEX_POINT('',#962);
#319=VERTEX_POINT('',#964);
#320=VERTEX_POINT('',#966);
#321=VERTEX_POINT('',#968);
#322=VERTEX_POINT('',#971);
#323=VERTEX_POINT('',#973);
#324=VERTEX_POINT('',#975);
#325=VERTEX_POINT('',#977);
#326=VERTEX_POINT('',#979);
#327=VERTEX_POINT('',#981);
#328=VERTEX_POINT('',#983);
#329=VERTEX_POINT('',#985);
#330=VERTEX_POINT('',#987);
#331=VERTEX_POINT('',#989);
#332=VERTEX_POINT('',#991);
#333=VERTEX_POINT('',#993);
#334=VERTEX_POINT('',#995);
#335=VERTEX_POINT('',#996);
#336=VERTEX_POINT('',#998);
#337=VERTEX_POINT('',#1000);
#338=VERTEX_POINT('',#1004);
#339=VERTEX_POINT('',#1006);
#340=VERTEX_POINT('',#1010);
#341=VERTEX_POINT('',#1014);
#342=VERTEX_POINT('',#1018);
#343=VERTEX_POINT('',#1022);
#344=VERTEX_POINT('',#1026);
#345=VERTEX_POINT('',#1030);
#346=VERTEX_POINT('',#1034);
#347=VERTEX_POINT('',#1035);
#348=VERTEX_POINT('',#1037);
#349=VERTEX_POINT('',#1039);
#350=VERTEX_POINT('',#1043);
#351=VERTEX_POINT('',#1045);
#352=VERTEX_POINT('',#1049);
#353=VERTEX_POINT('',#1051);
#354=VERTEX_POINT('',#1055);
#355=VERTEX_POINT('',#1058);
#356=VERTEX_POINT('',#1061);
#357=VERTEX_POINT('',#1064);
#358=VERTEX_POINT('',#1067);
#359=VERTEX_POINT('',#1070);
#360=VERTEX_POINT('',#1073);
#361=VERTEX_POINT('',#1076);
#362=VERTEX_POINT('',#1079);
#363=VERTEX_POINT('',#1082);
#364=VERTEX_POINT('',#1085);
#365=VERTEX_POINT('',#1088);
#366=VERTEX_POINT('',#1096);
#367=VERTEX_POINT('',#1098);
#368=VERTEX_POINT('',#1100);
#369=VERTEX_POINT('',#1102);
#370=VERTEX_POINT('',#1104);
#371=VERTEX_POINT('',#1106);
#372=VERTEX_POINT('',#1115);
#373=VERTEX_POINT('',#1117);
#374=VERTEX_POINT('',#1121);
#375=VERTEX_POINT('',#1125);
#376=LINE('',#954,#416);
#377=LINE('',#959,#417);
#378=LINE('',#963,#418);
#379=LINE('',#967,#419);
#380=LINE('',#994,#420);
#381=LINE('',#997,#421);
#382=LINE('',#999,#422);
#383=LINE('',#1001,#423);
#384=LINE('',#1003,#424);
#385=LINE('',#1005,#425);
#386=LINE('',#1007,#426);
#387=LINE('',#1009,#427);
#388=LINE('',#1013,#428);
#389=LINE('',#1015,#429);
#390=LINE('',#1017,#430);
#391=LINE('',#1021,#431);
#392=LINE('',#1023,#432);
#393=LINE('',#1025,#433);
#394=LINE('',#1029,#434);
#395=LINE('',#1031,#435);
#396=LINE('',#1033,#436);
#397=LINE('',#1036,#437);
#398=LINE('',#1038,#438);
#399=LINE('',#1040,#439);
#400=LINE('',#1042,#440);
#401=LINE('',#1044,#441);
#402=LINE('',#1046,#442);
#403=LINE('',#1048,#443);
#404=LINE('',#1050,#444);
#405=LINE('',#1052,#445);
#406=LINE('',#1090,#446);
#407=LINE('',#1091,#447);
#408=LINE('',#1114,#448);
#409=LINE('',#1116,#449);
#410=LINE('',#1118,#450);
#411=LINE('',#1120,#451);
#412=LINE('',#1122,#452);
#413=LINE('',#1124,#453);
#414=LINE('',#1126,#454);
#415=LINE('',#1128,#455);
#416=VECTOR('',#764,1000.);
#417=VECTOR('',#767,1000.);
#418=VECTOR('',#770,1000.);
#419=VECTOR('',#773,1000.);
#420=VECTOR('',#800,1000.);
#421=VECTOR('',#801,1000.);
#422=VECTOR('',#802,1000.);
#423=VECTOR('',#803,1000.);
#424=VECTOR('',#806,1000.);
#425=VECTOR('',#807,1000.);
#426=VECTOR('',#808,1000.);
#427=VECTOR('',#811,1000.);
#428=VECTOR('',#816,1000.);
#429=VECTOR('',#817,1000.);
#430=VECTOR('',#820,1000.);
#431=VECTOR('',#825,1000.);
#432=VECTOR('',#826,1000.);
#433=VECTOR('',#829,1000.);
#434=VECTOR('',#834,1000.);
#435=VECTOR('',#835,1000.);
#436=VECTOR('',#838,1000.);
#437=VECTOR('',#839,1000.);
#438=VECTOR('',#840,1000.);
#439=VECTOR('',#841,1000.);
#440=VECTOR('',#844,1000.);
#441=VECTOR('',#845,1000.);
#442=VECTOR('',#846,1000.);
#443=VECTOR('',#849,1000.);
#444=VECTOR('',#850,1000.);
#445=VECTOR('',#851,1000.);
#446=VECTOR('',#902,1000.);
#447=VECTOR('',#903,1000.);
#448=VECTOR('',#936,1000.);
#449=VECTOR('',#937,1000.);
#450=VECTOR('',#938,1000.);
#451=VECTOR('',#941,1000.);
#452=VECTOR('',#942,1000.);
#453=VECTOR('',#945,1000.);
#454=VECTOR('',#946,1000.);
#455=VECTOR('',#949,1000.);
#456=EDGE_LOOP('',(#80,#81,#82,#83,#84,#85,#86,#87));
#457=EDGE_LOOP('',(#88));
#458=EDGE_LOOP('',(#89));
#459=EDGE_LOOP('',(#90));
#460=EDGE_LOOP('',(#91));
#461=EDGE_LOOP('',(#92));
#462=EDGE_LOOP('',(#93));
#463=EDGE_LOOP('',(#94));
#464=EDGE_LOOP('',(#95));
#465=EDGE_LOOP('',(#96));
#466=EDGE_LOOP('',(#97));
#467=EDGE_LOOP('',(#98));
#468=EDGE_LOOP('',(#99));
#469=EDGE_LOOP('',(#100,#101,#102,#103));
#470=EDGE_LOOP('',(#104,#105,#106,#107));
#471=EDGE_LOOP('',(#108,#109,#110,#111));
#472=EDGE_LOOP('',(#112,#113,#114,#115));
#473=EDGE_LOOP('',(#116,#117,#118,#119));
#474=EDGE_LOOP('',(#120,#121,#122,#123));
#475=EDGE_LOOP('',(#124,#125,#126,#127));
#476=EDGE_LOOP('',(#128,#129,#130,#131));
#477=EDGE_LOOP('',(#132,#133,#134,#135));
#478=EDGE_LOOP('',(#136,#137,#138,#139));
#479=EDGE_LOOP('',(#140,#141,#142,#143));
#480=EDGE_LOOP('',(#144));
#481=EDGE_LOOP('',(#145));
#482=EDGE_LOOP('',(#146));
#483=EDGE_LOOP('',(#147));
#484=EDGE_LOOP('',(#148));
#485=EDGE_LOOP('',(#149));
#486=EDGE_LOOP('',(#150));
#487=EDGE_LOOP('',(#151));
#488=EDGE_LOOP('',(#152));
#489=EDGE_LOOP('',(#153));
#490=EDGE_LOOP('',(#154));
#491=EDGE_LOOP('',(#155));
#492=EDGE_LOOP('',(#156));
#493=EDGE_LOOP('',(#157));
#494=EDGE_LOOP('',(#158));
#495=EDGE_LOOP('',(#159));
#496=EDGE_LOOP('',(#160));
#497=EDGE_LOOP('',(#161));
#498=EDGE_LOOP('',(#162));
#499=EDGE_LOOP('',(#163));
#500=EDGE_LOOP('',(#164));
#501=EDGE_LOOP('',(#165));
#502=EDGE_LOOP('',(#166));
#503=EDGE_LOOP('',(#167));
#504=EDGE_LOOP('',(#168,#169,#170,#171));
#505=EDGE_LOOP('',(#172,#173,#174,#175));
#506=EDGE_LOOP('',(#176));
#507=EDGE_LOOP('',(#177));
#508=EDGE_LOOP('',(#178));
#509=EDGE_LOOP('',(#179));
#510=EDGE_LOOP('',(#180));
#511=EDGE_LOOP('',(#181));
#512=EDGE_LOOP('',(#182,#183,#184,#185));
#513=EDGE_LOOP('',(#186));
#514=EDGE_LOOP('',(#187));
#515=EDGE_LOOP('',(#188));
#516=EDGE_LOOP('',(#189));
#517=EDGE_LOOP('',(#190));
#518=EDGE_LOOP('',(#191));
#519=EDGE_LOOP('',(#192,#193,#194,#195,#196,#197,#198,#199));
#520=EDGE_LOOP('',(#200));
#521=EDGE_LOOP('',(#201));
#522=EDGE_LOOP('',(#202));
#523=EDGE_LOOP('',(#203));
#524=EDGE_LOOP('',(#204));
#525=EDGE_LOOP('',(#205));
#526=EDGE_LOOP('',(#206));
#527=EDGE_LOOP('',(#207));
#528=EDGE_LOOP('',(#208));
#529=EDGE_LOOP('',(#209));
#530=EDGE_LOOP('',(#210));
#531=EDGE_LOOP('',(#211));
#532=EDGE_LOOP('',(#212,#213,#214,#215));
#533=EDGE_LOOP('',(#216,#217,#218,#219));
#534=EDGE_LOOP('',(#220,#221,#222,#223));
#535=EDGE_LOOP('',(#224,#225,#226,#227));
#536=EDGE_LOOP('',(#228,#229,#230,#231));
#537=EDGE_LOOP('',(#232,#233,#234,#235));
#538=FACE_BOUND('',#456,.T.);
#539=FACE_BOUND('',#457,.T.);
#540=FACE_BOUND('',#458,.T.);
#541=FACE_BOUND('',#459,.T.);
#542=FACE_BOUND('',#460,.T.);
#543=FACE_BOUND('',#461,.T.);
#544=FACE_BOUND('',#462,.T.);
#545=FACE_BOUND('',#463,.T.);
#546=FACE_BOUND('',#464,.T.);
#547=FACE_BOUND('',#465,.T.);
#548=FACE_BOUND('',#466,.T.);
#549=FACE_BOUND('',#467,.T.);
#550=FACE_BOUND('',#468,.T.);
#551=FACE_BOUND('',#469,.T.);
#552=FACE_BOUND('',#470,.T.);
#553=FACE_BOUND('',#471,.T.);
#554=FACE_BOUND('',#472,.T.);
#555=FACE_BOUND('',#473,.T.);
#556=FACE_BOUND('',#474,.T.);
#557=FACE_BOUND('',#475,.T.);
#558=FACE_BOUND('',#476,.T.);
#559=FACE_BOUND('',#477,.T.);
#560=FACE_BOUND('',#478,.T.);
#561=FACE_BOUND('',#479,.T.);
#562=FACE_BOUND('',#480,.T.);
#563=FACE_BOUND('',#481,.T.);
#564=FACE_BOUND('',#482,.T.);
#565=FACE_BOUND('',#483,.T.);
#566=FACE_BOUND('',#484,.T.);
#567=FACE_BOUND('',#485,.T.);
#568=FACE_BOUND('',#486,.T.);
#569=FACE_BOUND('',#487,.T.);
#570=FACE_BOUND('',#488,.T.);
#571=FACE_BOUND('',#489,.T.);
#572=FACE_BOUND('',#490,.T.);
#573=FACE_BOUND('',#491,.T.);
#574=FACE_BOUND('',#492,.T.);
#575=FACE_BOUND('',#493,.T.);
#576=FACE_BOUND('',#494,.T.);
#577=FACE_BOUND('',#495,.T.);
#578=FACE_BOUND('',#496,.T.);
#579=FACE_BOUND('',#497,.T.);
#580=FACE_BOUND('',#498,.T.);
#581=FACE_BOUND('',#499,.T.);
#582=FACE_BOUND('',#500,.T.);
#583=FACE_BOUND('',#501,.T.);
#584=FACE_BOUND('',#502,.T.);
#585=FACE_BOUND('',#503,.T.);
#586=FACE_BOUND('',#504,.T.);
#587=FACE_BOUND('',#505,.T.);
#588=FACE_BOUND('',#506,.T.);
#589=FACE_BOUND('',#507,.T.);
#590=FACE_BOUND('',#508,.T.);
#591=FACE_BOUND('',#509,.T.);
#592=FACE_BOUND('',#510,.T.);
#593=FACE_BOUND('',#511,.T.);
#594=FACE_BOUND('',#512,.T.);
#595=FACE_BOUND('',#513,.T.);
#596=FACE_BOUND('',#514,.T.);
#597=FACE_BOUND('',#515,.T.);
#598=FACE_BOUND('',#516,.T.);
#599=FACE_BOUND('',#517,.T.);
#600=FACE_BOUND('',#518,.T.);
#601=FACE_BOUND('',#519,.T.);
#602=FACE_BOUND('',#520,.T.);
#603=FACE_BOUND('',#521,.T.);
#604=FACE_BOUND('',#522,.T.);
#605=FACE_BOUND('',#523,.T.);
#606=FACE_BOUND('',#524,.T.);
#607=FACE_BOUND('',#525,.T.);
#608=FACE_BOUND('',#526,.T.);
#609=FACE_BOUND('',#527,.T.);
#610=FACE_BOUND('',#528,.T.);
#611=FACE_BOUND('',#529,.T.);
#612=FACE_BOUND('',#530,.T.);
#613=FACE_BOUND('',#531,.T.);
#614=FACE_BOUND('',#532,.T.);
#615=FACE_BOUND('',#533,.T.);
#616=FACE_BOUND('',#534,.T.);
#617=FACE_BOUND('',#535,.T.);
#618=FACE_BOUND('',#536,.T.);
#619=FACE_BOUND('',#537,.T.);
#620=PLANE('',#685);
#621=PLANE('',#702);
#622=PLANE('',#705);
#623=PLANE('',#708);
#624=PLANE('',#711);
#625=PLANE('',#712);
#626=PLANE('',#713);
#627=PLANE('',#714);
#628=PLANE('',#739);
#629=PLANE('',#742);
#630=PLANE('',#755);
#631=PLANE('',#756);
#632=PLANE('',#757);
#633=PLANE('',#758);
#634=PLANE('',#759);
#635=ADVANCED_FACE('',(#538,#539,#540,#541,#542,#543,#544,#545,#546,#547,
#548,#549,#550,#551),#620,.F.);
#636=ADVANCED_FACE('',(#552),#621,.F.);
#637=ADVANCED_FACE('',(#553),#26,.T.);
#638=ADVANCED_FACE('',(#554),#622,.F.);
#639=ADVANCED_FACE('',(#555),#27,.T.);
#640=ADVANCED_FACE('',(#556),#623,.T.);
#641=ADVANCED_FACE('',(#557),#28,.T.);
#642=ADVANCED_FACE('',(#558),#624,.T.);
#643=ADVANCED_FACE('',(#559),#625,.T.);
#644=ADVANCED_FACE('',(#560),#626,.F.);
#645=ADVANCED_FACE('',(#561),#627,.F.);
#646=ADVANCED_FACE('',(#562,#563),#29,.F.);
#647=ADVANCED_FACE('',(#564,#565),#30,.F.);
#648=ADVANCED_FACE('',(#566,#567),#31,.F.);
#649=ADVANCED_FACE('',(#568,#569),#32,.F.);
#650=ADVANCED_FACE('',(#570,#571),#33,.F.);
#651=ADVANCED_FACE('',(#572,#573),#34,.F.);
#652=ADVANCED_FACE('',(#574,#575),#35,.F.);
#653=ADVANCED_FACE('',(#576,#577),#36,.F.);
#654=ADVANCED_FACE('',(#578,#579),#37,.F.);
#655=ADVANCED_FACE('',(#580,#581),#38,.F.);
#656=ADVANCED_FACE('',(#582,#583),#39,.F.);
#657=ADVANCED_FACE('',(#584,#585),#40,.F.);
#658=ADVANCED_FACE('',(#586),#628,.T.);
#659=ADVANCED_FACE('',(#587),#41,.T.);
#660=ADVANCED_FACE('',(#588,#589,#590,#591,#592,#593,#594,#595,#596,#597,
#598,#599,#600,#601),#629,.T.);
#661=ADVANCED_FACE('',(#602,#603),#20,.F.);
#662=ADVANCED_FACE('',(#604,#605),#21,.F.);
#663=ADVANCED_FACE('',(#606,#607),#22,.F.);
#664=ADVANCED_FACE('',(#608,#609),#23,.F.);
#665=ADVANCED_FACE('',(#610,#611),#24,.F.);
#666=ADVANCED_FACE('',(#612,#613),#25,.F.);
#667=ADVANCED_FACE('',(#614),#630,.F.);
#668=ADVANCED_FACE('',(#615),#631,.F.);
#669=ADVANCED_FACE('',(#616),#632,.T.);
#670=ADVANCED_FACE('',(#617),#633,.T.);
#671=ADVANCED_FACE('',(#618,#619),#634,.T.);
#672=CLOSED_SHELL('',(#635,#636,#637,#638,#639,#640,#641,#642,#643,#644,
#645,#646,#647,#648,#649,#650,#651,#652,#653,#654,#655,#656,#657,#658,#659,
#660,#661,#662,#663,#664,#665,#666,#667,#668,#669,#670,#671));
#673=STYLED_ITEM('',(#674),#681);
#674=PRESENTATION_STYLE_ASSIGNMENT((#675));
#675=SURFACE_STYLE_USAGE(.BOTH.,#676);
#676=SURFACE_SIDE_STYLE('',(#677));
#677=SURFACE_STYLE_FILL_AREA(#678);
#678=FILL_AREA_STYLE('',(#679));
#679=FILL_AREA_STYLE_COLOUR('',#680);
#680=COLOUR_RGB('',0.231372549019608,0.380392156862745,0.705882352941177);
#681=MANIFOLD_SOLID_BREP('Part 290',#672);
#682=SHAPE_DEFINITION_REPRESENTATION(#1136,#683);
#683=SHAPE_REPRESENTATION('Part 290',(#684),#1131);
#684=AXIS2_PLACEMENT_3D('',#952,#760,#761);
#685=AXIS2_PLACEMENT_3D('',#953,#762,#763);
#686=AXIS2_PLACEMENT_3D('',#957,#765,#766);
#687=AXIS2_PLACEMENT_3D('',#961,#768,#769);
#688=AXIS2_PLACEMENT_3D('',#965,#771,#772);
#689=AXIS2_PLACEMENT_3D('',#969,#774,#775);
#690=AXIS2_PLACEMENT_3D('',#970,#776,#777);
#691=AXIS2_PLACEMENT_3D('',#972,#778,#779);
#692=AXIS2_PLACEMENT_3D('',#974,#780,#781);
#693=AXIS2_PLACEMENT_3D('',#976,#782,#783);
#694=AXIS2_PLACEMENT_3D('',#978,#784,#785);
#695=AXIS2_PLACEMENT_3D('',#980,#786,#787);
#696=AXIS2_PLACEMENT_3D('',#982,#788,#789);
#697=AXIS2_PLACEMENT_3D('',#984,#790,#791);
#698=AXIS2_PLACEMENT_3D('',#986,#792,#793);
#699=AXIS2_PLACEMENT_3D('',#988,#794,#795);
#700=AXIS2_PLACEMENT_3D('',#990,#796,#797);
#701=AXIS2_PLACEMENT_3D('',#992,#798,#799);
#702=AXIS2_PLACEMENT_3D('',#1002,#804,#805);
#703=AXIS2_PLACEMENT_3D('',#1008,#809,#810);
#704=AXIS2_PLACEMENT_3D('',#1011,#812,#813);
#705=AXIS2_PLACEMENT_3D('',#1012,#814,#815);
#706=AXIS2_PLACEMENT_3D('',#1016,#818,#819);
#707=AXIS2_PLACEMENT_3D('',#1019,#821,#822);
#708=AXIS2_PLACEMENT_3D('',#1020,#823,#824);
#709=AXIS2_PLACEMENT_3D('',#1024,#827,#828);
#710=AXIS2_PLACEMENT_3D('',#1027,#830,#831);
#711=AXIS2_PLACEMENT_3D('',#1028,#832,#833);
#712=AXIS2_PLACEMENT_3D('',#1032,#836,#837);
#713=AXIS2_PLACEMENT_3D('',#1041,#842,#843);
#714=AXIS2_PLACEMENT_3D('',#1047,#847,#848);
#715=AXIS2_PLACEMENT_3D('',#1053,#852,#853);
#716=AXIS2_PLACEMENT_3D('',#1054,#854,#855);
#717=AXIS2_PLACEMENT_3D('',#1056,#856,#857);
#718=AXIS2_PLACEMENT_3D('',#1057,#858,#859);
#719=AXIS2_PLACEMENT_3D('',#1059,#860,#861);
#720=AXIS2_PLACEMENT_3D('',#1060,#862,#863);
#721=AXIS2_PLACEMENT_3D('',#1062,#864,#865);
#722=AXIS2_PLACEMENT_3D('',#1063,#866,#867);
#723=AXIS2_PLACEMENT_3D('',#1065,#868,#869);
#724=AXIS2_PLACEMENT_3D('',#1066,#870,#871);
#725=AXIS2_PLACEMENT_3D('',#1068,#872,#873);
#726=AXIS2_PLACEMENT_3D('',#1069,#874,#875);
#727=AXIS2_PLACEMENT_3D('',#1071,#876,#877);
#728=AXIS2_PLACEMENT_3D('',#1072,#878,#879);
#729=AXIS2_PLACEMENT_3D('',#1074,#880,#881);
#730=AXIS2_PLACEMENT_3D('',#1075,#882,#883);
#731=AXIS2_PLACEMENT_3D('',#1077,#884,#885);
#732=AXIS2_PLACEMENT_3D('',#1078,#886,#887);
#733=AXIS2_PLACEMENT_3D('',#1080,#888,#889);
#734=AXIS2_PLACEMENT_3D('',#1081,#890,#891);
#735=AXIS2_PLACEMENT_3D('',#1083,#892,#893);
#736=AXIS2_PLACEMENT_3D('',#1084,#894,#895);
#737=AXIS2_PLACEMENT_3D('',#1086,#896,#897);
#738=AXIS2_PLACEMENT_3D('',#1087,#898,#899);
#739=AXIS2_PLACEMENT_3D('',#1089,#900,#901);
#740=AXIS2_PLACEMENT_3D('',#1092,#904,#905);
#741=AXIS2_PLACEMENT_3D('',#1093,#906,#907);
#742=AXIS2_PLACEMENT_3D('',#1094,#908,#909);
#743=AXIS2_PLACEMENT_3D('',#1095,#910,#911);
#744=AXIS2_PLACEMENT_3D('',#1097,#912,#913);
#745=AXIS2_PLACEMENT_3D('',#1099,#914,#915);
#746=AXIS2_PLACEMENT_3D('',#1101,#916,#917);
#747=AXIS2_PLACEMENT_3D('',#1103,#918,#919);
#748=AXIS2_PLACEMENT_3D('',#1105,#920,#921);
#749=AXIS2_PLACEMENT_3D('',#1107,#922,#923);
#750=AXIS2_PLACEMENT_3D('',#1108,#924,#925);
#751=AXIS2_PLACEMENT_3D('',#1109,#926,#927);
#752=AXIS2_PLACEMENT_3D('',#1110,#928,#929);
#753=AXIS2_PLACEMENT_3D('',#1111,#930,#931);
#754=AXIS2_PLACEMENT_3D('',#1112,#932,#933);
#755=AXIS2_PLACEMENT_3D('',#1113,#934,#935);
#756=AXIS2_PLACEMENT_3D('',#1119,#939,#940);
#757=AXIS2_PLACEMENT_3D('',#1123,#943,#944);
#758=AXIS2_PLACEMENT_3D('',#1127,#947,#948);
#759=AXIS2_PLACEMENT_3D('',#1129,#950,#951);
#760=DIRECTION('',(0.,0.,1.));
#761=DIRECTION('',(1.,0.,0.));
#762=DIRECTION('',(0.,0.,1.));
#763=DIRECTION('',(1.,0.,0.));
#764=DIRECTION('',(-1.27319154200133E-16,1.,0.));
#765=DIRECTION('',(0.,0.,1.));
#766=DIRECTION('',(3.25260651745651E-15,-1.,0.));
#767=DIRECTION('',(-1.,-2.3521674250533E-16,0.));
#768=DIRECTION('',(0.,0.,1.));
#769=DIRECTION('',(-1.,0.,0.));
#770=DIRECTION('',(-1.27319154200133E-16,1.,0.));
#771=DIRECTION('',(0.,0.,1.));
#772=DIRECTION('',(-3.25260651745651E-15,1.,0.));
#773=DIRECTION('',(-1.,-2.3521674250533E-16,0.));
#774=DIRECTION('',(0.,0.,1.));
#775=DIRECTION('',(1.,0.,0.));
#776=DIRECTION('',(0.,0.,1.));
#777=DIRECTION('',(1.,0.,0.));
#778=DIRECTION('',(0.,0.,1.));
#779=DIRECTION('',(1.,0.,0.));
#780=DIRECTION('',(0.,0.,1.));
#781=DIRECTION('',(1.,0.,0.));
#782=DIRECTION('',(0.,0.,1.));
#783=DIRECTION('',(1.,0.,0.));
#784=DIRECTION('',(0.,0.,1.));
#785=DIRECTION('',(1.,0.,0.));
#786=DIRECTION('',(0.,0.,1.));
#787=DIRECTION('',(1.,0.,0.));
#788=DIRECTION('',(0.,0.,1.));
#789=DIRECTION('',(1.,0.,0.));
#790=DIRECTION('',(0.,0.,1.));
#791=DIRECTION('',(1.,0.,0.));
#792=DIRECTION('',(0.,0.,1.));
#793=DIRECTION('',(1.,-8.34001671142696E-17,0.));
#794=DIRECTION('',(0.,0.,1.));
#795=DIRECTION('',(1.,-8.34001671142696E-17,0.));
#796=DIRECTION('',(0.,0.,1.));
#797=DIRECTION('',(1.,0.,0.));
#798=DIRECTION('',(0.,0.,1.));
#799=DIRECTION('',(1.,0.,0.));
#800=DIRECTION('',(1.,0.,0.));
#801=DIRECTION('',(0.,-1.,0.));
#802=DIRECTION('',(1.,0.,0.));
#803=DIRECTION('',(0.,-1.,0.));
#804=DIRECTION('',(-1.,-1.27319154200133E-16,0.));
#805=DIRECTION('',(1.27319154200133E-16,-1.,0.));
#806=DIRECTION('',(0.,0.,-1.));
#807=DIRECTION('',(-1.27319154200133E-16,1.,0.));
#808=DIRECTION('',(0.,0.,-1.));
#809=DIRECTION('',(0.,0.,-1.));
#810=DIRECTION('',(-1.,0.,0.));
#811=DIRECTION('',(0.,0.,-1.));
#812=DIRECTION('',(0.,0.,1.));
#813=DIRECTION('',(1.,0.,0.));
#814=DIRECTION('',(2.3521674250533E-16,-1.,0.));
#815=DIRECTION('',(1.,2.3521674250533E-16,0.));
#816=DIRECTION('',(0.,0.,-1.));
#817=DIRECTION('',(-1.,-2.3521674250533E-16,0.));
#818=DIRECTION('',(0.,0.,-1.));
#819=DIRECTION('',(-1.,0.,0.));
#820=DIRECTION('',(0.,0.,-1.));
#821=DIRECTION('',(0.,0.,1.));
#822=DIRECTION('',(-3.25260651745651E-15,1.,0.));
#823=DIRECTION('',(-1.,-1.27319154200133E-16,0.));
#824=DIRECTION('',(1.27319154200133E-16,-1.,0.));
#825=DIRECTION('',(0.,0.,-1.));
#826=DIRECTION('',(-1.27319154200133E-16,1.,0.));
#827=DIRECTION('',(0.,0.,-1.));
#828=DIRECTION('',(-1.,0.,0.));
#829=DIRECTION('',(0.,0.,-1.));
#830=DIRECTION('',(0.,0.,1.));
#831=DIRECTION('',(-1.,0.,0.));
#832=DIRECTION('',(2.3521674250533E-16,-1.,0.));
#833=DIRECTION('',(1.,2.3521674250533E-16,0.));
#834=DIRECTION('',(0.,0.,-1.));
#835=DIRECTION('',(-1.,-2.3521674250533E-16,0.));
#836=DIRECTION('',(1.,0.,0.));
#837=DIRECTION('',(0.,0.,-1.));
#838=DIRECTION('',(0.,0.,-1.));
#839=DIRECTION('',(0.,-1.,0.));
#840=DIRECTION('',(0.,0.,-1.));
#841=DIRECTION('',(0.,-1.,0.));
#842=DIRECTION('',(0.,1.,0.));
#843=DIRECTION('',(0.,0.,1.));
#844=DIRECTION('',(1.,0.,0.));
#845=DIRECTION('',(0.,0.,-1.));
#846=DIRECTION('',(1.,0.,0.));
#847=DIRECTION('',(1.,0.,0.));
#848=DIRECTION('',(0.,0.,-1.));
#849=DIRECTION('',(0.,-1.,0.));
#850=DIRECTION('',(0.,0.,-1.));
#851=DIRECTION('',(0.,-1.,0.));
#852=DIRECTION('',(0.,0.,-1.));
#853=DIRECTION('',(-1.,0.,0.));
#854=DIRECTION('',(0.,0.,1.));
#855=DIRECTION('',(1.,0.,0.));
#856=DIRECTION('',(0.,0.,-1.));
#857=DIRECTION('',(-1.,0.,0.));
#858=DIRECTION('',(0.,0.,1.));
#859=DIRECTION('',(1.,0.,0.));
#860=DIRECTION('',(0.,0.,-1.));
#861=DIRECTION('',(-1.,0.,0.));
#862=DIRECTION('',(0.,0.,1.));
#863=DIRECTION('',(1.,0.,0.));
#864=DIRECTION('',(0.,0.,-1.));
#865=DIRECTION('',(-1.,0.,0.));
#866=DIRECTION('',(0.,0.,1.));
#867=DIRECTION('',(1.,0.,0.));
#868=DIRECTION('',(0.,0.,-1.));
#869=DIRECTION('',(-1.,0.,0.));
#870=DIRECTION('',(0.,0.,1.));
#871=DIRECTION('',(1.,0.,0.));
#872=DIRECTION('',(0.,0.,-1.));
#873=DIRECTION('',(-1.,0.,0.));
#874=DIRECTION('',(0.,0.,1.));
#875=DIRECTION('',(1.,0.,0.));
#876=DIRECTION('',(0.,0.,-1.));
#877=DIRECTION('',(-1.,0.,0.));
#878=DIRECTION('',(0.,0.,1.));
#879=DIRECTION('',(1.,0.,0.));
#880=DIRECTION('',(0.,0.,-1.));
#881=DIRECTION('',(-1.,0.,0.));
#882=DIRECTION('',(0.,0.,1.));
#883=DIRECTION('',(1.,0.,0.));
#884=DIRECTION('',(0.,0.,-1.));
#885=DIRECTION('',(-1.,0.,0.));
#886=DIRECTION('',(0.,0.,1.));
#887=DIRECTION('',(1.,0.,0.));
#888=DIRECTION('',(0.,0.,-1.));
#889=DIRECTION('',(-1.,0.,0.));
#890=DIRECTION('',(0.,0.,1.));
#891=DIRECTION('',(1.,0.,0.));
#892=DIRECTION('',(0.,0.,-1.));
#893=DIRECTION('',(-1.,0.,0.));
#894=DIRECTION('',(0.,0.,1.));
#895=DIRECTION('',(1.,0.,0.));
#896=DIRECTION('',(0.,0.,-1.));
#897=DIRECTION('',(-1.,0.,0.));
#898=DIRECTION('',(0.,0.,1.));
#899=DIRECTION('',(1.,0.,0.));
#900=DIRECTION('',(0.,1.,0.));
#901=DIRECTION('',(0.,0.,1.));
#902=DIRECTION('',(1.,0.,0.));
#903=DIRECTION('',(1.,0.,0.));
#904=DIRECTION('',(0.,0.,-1.));
#905=DIRECTION('',(-1.,0.,0.));
#906=DIRECTION('',(0.,0.,1.));
#907=DIRECTION('',(3.25260651745651E-15,-1.,0.));
#908=DIRECTION('',(0.,0.,1.));
#909=DIRECTION('',(1.,0.,0.));
#910=DIRECTION('',(0.,0.,1.));
#911=DIRECTION('',(1.,0.,0.));
#912=DIRECTION('',(0.,0.,1.));
#913=DIRECTION('',(1.,0.,0.));
#914=DIRECTION('',(0.,0.,1.));
#915=DIRECTION('',(1.,0.,0.));
#916=DIRECTION('',(0.,0.,1.));
#917=DIRECTION('',(1.,0.,0.));
#918=DIRECTION('',(0.,0.,1.));
#919=DIRECTION('',(1.,0.,0.));
#920=DIRECTION('',(0.,0.,1.));
#921=DIRECTION('',(1.,0.,0.));
#922=DIRECTION('',(0.,0.,1.));
#923=DIRECTION('',(1.,0.,0.));
#924=DIRECTION('',(0.,0.,1.));
#925=DIRECTION('',(1.,0.,0.));
#926=DIRECTION('',(0.,0.,1.));
#927=DIRECTION('',(1.,0.,0.));
#928=DIRECTION('',(0.,0.,1.));
#929=DIRECTION('',(1.,0.,0.));
#930=DIRECTION('',(0.,0.,1.));
#931=DIRECTION('',(1.,0.,0.));
#932=DIRECTION('',(0.,0.,1.));
#933=DIRECTION('',(1.,0.,0.));
#934=DIRECTION('',(0.,-1.,0.));
#935=DIRECTION('',(0.,0.,-1.));
#936=DIRECTION('',(0.,0.,1.));
#937=DIRECTION('',(1.,0.,0.));
#938=DIRECTION('',(0.,0.,1.));
#939=DIRECTION('',(-1.,0.,0.));
#940=DIRECTION('',(0.,0.,1.));
#941=DIRECTION('',(0.,0.,1.));
#942=DIRECTION('',(0.,-1.,0.));
#943=DIRECTION('',(0.,-1.,0.));
#944=DIRECTION('',(0.,0.,-1.));
#945=DIRECTION('',(0.,0.,1.));
#946=DIRECTION('',(1.,0.,0.));
#947=DIRECTION('',(-1.,0.,0.));
#948=DIRECTION('',(0.,0.,1.));
#949=DIRECTION('',(0.,-1.,0.));
#950=DIRECTION('',(0.,0.,-1.));
#951=DIRECTION('',(1.,0.,0.));
#952=CARTESIAN_POINT('',(0.,0.,0.));
#953=CARTESIAN_POINT('',(6.93889390390723E-15,0.,12.2));
#954=CARTESIAN_POINT('',(32.7,6.93889390390723E-15,12.2));
#955=CARTESIAN_POINT('',(32.7,-54.5,12.2));
#956=CARTESIAN_POINT('',(32.7,54.5,12.2));
#957=CARTESIAN_POINT('',(29.5,-54.5,12.2));
#958=CARTESIAN_POINT('',(29.5,-57.7,12.2));
#959=CARTESIAN_POINT('',(1.7347234759768E-14,-57.7,12.2));
#960=CARTESIAN_POINT('',(-29.5,-57.7,12.2));
#961=CARTESIAN_POINT('',(-29.5,-54.5,12.2));
#962=CARTESIAN_POINT('',(-32.7,-54.5,12.2));
#963=CARTESIAN_POINT('',(-32.7,-6.93889390390723E-15,12.2));
#964=CARTESIAN_POINT('',(-32.7,54.5,12.2));
#965=CARTESIAN_POINT('',(-29.5,54.5,12.2));
#966=CARTESIAN_POINT('',(-29.5,57.7,12.2));
#967=CARTESIAN_POINT('',(-3.46944695195361E-15,57.7,12.2));
#968=CARTESIAN_POINT('',(29.5,57.7,12.2));
#969=CARTESIAN_POINT('',(29.5,54.5,12.2));
#970=CARTESIAN_POINT('',(-10.5304876342416,-33.9863933622837,12.2));
#971=CARTESIAN_POINT('',(-8.53048763424158,-33.9863933622837,12.2));
#972=CARTESIAN_POINT('',(-10.499999858439,-43.0000200867653,12.2));
#973=CARTESIAN_POINT('',(-8.49999985843896,-43.0000200867653,12.2));
#974=CARTESIAN_POINT('',(3.00000002607703,-43.0000200867653,12.2));
#975=CARTESIAN_POINT('',(5.00000002607703,-43.0000200867653,12.2));
#976=CARTESIAN_POINT('',(17.000000923872,-43.0000200867653,12.2));
#977=CARTESIAN_POINT('',(19.000000923872,-43.0000200867653,12.2));
#978=CARTESIAN_POINT('',(17.000000923872,-34.0000241994858,12.2));
#979=CARTESIAN_POINT('',(19.000000923872,-34.0000241994858,12.2));
#980=CARTESIAN_POINT('',(3.00000002607703,-34.0000241994858,12.2));
#981=CARTESIAN_POINT('',(5.00000002607703,-34.0000241994858,12.2));
#982=CARTESIAN_POINT('',(-26.9,-52.55,12.2));
#983=CARTESIAN_POINT('',(-24.9,-52.55,12.2));
#984=CARTESIAN_POINT('',(26.9,-52.55,12.2));
#985=CARTESIAN_POINT('',(28.9,-52.55,12.2));
#986=CARTESIAN_POINT('',(-28.,-0.25,12.2));
#987=CARTESIAN_POINT('',(-26.7,-0.25,12.2));
#988=CARTESIAN_POINT('',(28.,-0.249999999999987,12.2));
#989=CARTESIAN_POINT('',(29.3,-0.249999999999987,12.2));
#990=CARTESIAN_POINT('',(24.25,52.42,12.2));
#991=CARTESIAN_POINT('',(26.25,52.42,12.2));
#992=CARTESIAN_POINT('',(-24.25,52.42,12.2));
#993=CARTESIAN_POINT('',(-22.25,52.42,12.2));
#994=CARTESIAN_POINT('',(0.511099584400654,42.3564148962498,12.2));
#995=CARTESIAN_POINT('',(-16.4161121368408,42.3564148962498,12.2));
#996=CARTESIAN_POINT('',(17.4383113056421,42.3564148962498,12.2));
#997=CARTESIAN_POINT('',(-16.4161121368408,32.7914245426655,12.2));
#998=CARTESIAN_POINT('',(-16.4161121368408,23.2264341890812,12.2));
#999=CARTESIAN_POINT('',(0.511099584400654,23.2264341890812,12.2));
#1000=CARTESIAN_POINT('',(17.4383113056421,23.2264341890812,12.2));
#1001=CARTESIAN_POINT('',(17.4383113056421,32.7914245426655,12.2));
#1002=CARTESIAN_POINT('',(32.7,6.93889390390723E-15,14.2));
#1003=CARTESIAN_POINT('',(32.7,54.5,14.2));
#1004=CARTESIAN_POINT('',(32.7,54.5,14.2));
#1005=CARTESIAN_POINT('',(32.7,6.93889390390723E-15,14.2));
#1006=CARTESIAN_POINT('',(32.7,-54.5,14.2));
#1007=CARTESIAN_POINT('',(32.7,-54.5,14.2));
#1008=CARTESIAN_POINT('',(29.5,54.5,14.2));
#1009=CARTESIAN_POINT('',(29.5,57.7,14.2));
#1010=CARTESIAN_POINT('',(29.5,57.7,14.2));
#1011=CARTESIAN_POINT('',(29.5,54.5,14.2));
#1012=CARTESIAN_POINT('',(-3.46944695195361E-15,57.7,14.2));
#1013=CARTESIAN_POINT('',(-29.5,57.7,14.2));
#1014=CARTESIAN_POINT('',(-29.5,57.7,14.2));
#1015=CARTESIAN_POINT('',(-3.46944695195361E-15,57.7,14.2));
#1016=CARTESIAN_POINT('',(-29.5,54.5,14.2));
#1017=CARTESIAN_POINT('',(-32.7,54.5,14.2));
#1018=CARTESIAN_POINT('',(-32.7,54.5,14.2));
#1019=CARTESIAN_POINT('',(-29.5,54.5,14.2));
#1020=CARTESIAN_POINT('',(-32.7,-6.93889390390723E-15,14.2));
#1021=CARTESIAN_POINT('',(-32.7,-54.5,14.2));
#1022=CARTESIAN_POINT('',(-32.7,-54.5,14.2));
#1023=CARTESIAN_POINT('',(-32.7,-6.93889390390723E-15,14.2));
#1024=CARTESIAN_POINT('',(-29.5,-54.5,14.2));
#1025=CARTESIAN_POINT('',(-29.5,-57.7,14.2));
#1026=CARTESIAN_POINT('',(-29.5,-57.7,14.2));
#1027=CARTESIAN_POINT('',(-29.5,-54.5,14.2));
#1028=CARTESIAN_POINT('',(1.7347234759768E-14,-57.7,14.2));
#1029=CARTESIAN_POINT('',(29.5,-57.7,14.2));
#1030=CARTESIAN_POINT('',(29.5,-57.7,14.2));
#1031=CARTESIAN_POINT('',(1.7347234759768E-14,-57.7,14.2));
#1032=CARTESIAN_POINT('',(-15.2161121368408,32.7914245426655,14.2));
#1033=CARTESIAN_POINT('',(-15.2161121368408,24.4264341890812,14.2));
#1034=CARTESIAN_POINT('',(-15.2161121368408,24.4264341890812,14.2));
#1035=CARTESIAN_POINT('',(-15.2161121368408,24.4264341890812,6.2));
#1036=CARTESIAN_POINT('',(-15.2161121368408,32.7914245426655,6.2));
#1037=CARTESIAN_POINT('',(-15.2161121368408,41.1564148962497,6.2));
#1038=CARTESIAN_POINT('',(-15.2161121368408,41.1564148962497,14.2));
#1039=CARTESIAN_POINT('',(-15.2161121368408,41.1564148962497,14.2));
#1040=CARTESIAN_POINT('',(-15.2161121368408,32.7914245426655,14.2));
#1041=CARTESIAN_POINT('',(0.511099584400654,41.1564148962497,14.2));
#1042=CARTESIAN_POINT('',(0.511099584400654,41.1564148962497,6.2));
#1043=CARTESIAN_POINT('',(16.2383113056421,41.1564148962497,6.2));
#1044=CARTESIAN_POINT('',(16.2383113056421,41.1564148962497,14.2));
#1045=CARTESIAN_POINT('',(16.2383113056421,41.1564148962497,14.2));
#1046=CARTESIAN_POINT('',(0.511099584400654,41.1564148962497,14.2));
#1047=CARTESIAN_POINT('',(16.2383113056421,32.7914245426655,14.2));
#1048=CARTESIAN_POINT('',(16.2383113056421,32.7914245426655,6.2));
#1049=CARTESIAN_POINT('',(16.2383113056421,24.4264341890812,6.2));
#1050=CARTESIAN_POINT('',(16.2383113056421,24.4264341890812,14.2));
#1051=CARTESIAN_POINT('',(16.2383113056421,24.4264341890812,14.2));
#1052=CARTESIAN_POINT('',(16.2383113056421,32.7914245426655,14.2));
#1053=CARTESIAN_POINT('',(-10.5304876342416,-33.9863933622837,14.2));
#1054=CARTESIAN_POINT('',(-10.5304876342416,-33.9863933622837,14.2));
#1055=CARTESIAN_POINT('',(-8.53048763424158,-33.9863933622837,14.2));
#1056=CARTESIAN_POINT('',(-10.499999858439,-43.0000200867653,14.2));
#1057=CARTESIAN_POINT('',(-10.499999858439,-43.0000200867653,14.2));
#1058=CARTESIAN_POINT('',(-8.49999985843896,-43.0000200867653,14.2));
#1059=CARTESIAN_POINT('',(3.00000002607703,-43.0000200867653,14.2));
#1060=CARTESIAN_POINT('',(3.00000002607703,-43.0000200867653,14.2));
#1061=CARTESIAN_POINT('',(5.00000002607703,-43.0000200867653,14.2));
#1062=CARTESIAN_POINT('',(17.000000923872,-43.0000200867653,14.2));
#1063=CARTESIAN_POINT('',(17.000000923872,-43.0000200867653,14.2));
#1064=CARTESIAN_POINT('',(19.000000923872,-43.0000200867653,14.2));
#1065=CARTESIAN_POINT('',(17.000000923872,-34.0000241994858,14.2));
#1066=CARTESIAN_POINT('',(17.000000923872,-34.0000241994858,14.2));
#1067=CARTESIAN_POINT('',(19.000000923872,-34.0000241994858,14.2));
#1068=CARTESIAN_POINT('',(3.00000002607703,-34.0000241994858,14.2));
#1069=CARTESIAN_POINT('',(3.00000002607703,-34.0000241994858,14.2));
#1070=CARTESIAN_POINT('',(5.00000002607703,-34.0000241994858,14.2));
#1071=CARTESIAN_POINT('',(-26.9,-52.55,14.2));
#1072=CARTESIAN_POINT('',(-26.9,-52.55,12.7));
#1073=CARTESIAN_POINT('',(-24.9,-52.55,12.7));
#1074=CARTESIAN_POINT('',(26.9,-52.55,14.2));
#1075=CARTESIAN_POINT('',(26.9,-52.55,12.7));
#1076=CARTESIAN_POINT('',(28.9,-52.55,12.7));
#1077=CARTESIAN_POINT('',(-28.,-0.25,14.2));
#1078=CARTESIAN_POINT('',(-28.,-0.25,13.2));
#1079=CARTESIAN_POINT('',(-26.7,-0.25,13.2));
#1080=CARTESIAN_POINT('',(28.,-0.249999999999987,14.2));
#1081=CARTESIAN_POINT('',(28.,-0.249999999999987,13.2));
#1082=CARTESIAN_POINT('',(29.3,-0.249999999999987,13.2));
#1083=CARTESIAN_POINT('',(24.25,52.42,14.2));
#1084=CARTESIAN_POINT('',(24.25,52.42,12.7));
#1085=CARTESIAN_POINT('',(26.25,52.42,12.7));
#1086=CARTESIAN_POINT('',(-24.25,52.42,14.2));
#1087=CARTESIAN_POINT('',(-24.25,52.42,12.7));
#1088=CARTESIAN_POINT('',(-22.25,52.42,12.7));
#1089=CARTESIAN_POINT('',(0.511099584400654,24.4264341890812,14.2));
#1090=CARTESIAN_POINT('',(0.511099584400654,24.4264341890812,6.2));
#1091=CARTESIAN_POINT('',(0.511099584400654,24.4264341890812,14.2));
#1092=CARTESIAN_POINT('',(29.5,-54.5,14.2));
#1093=CARTESIAN_POINT('',(29.5,-54.5,14.2));
#1094=CARTESIAN_POINT('',(6.93889390390723E-15,0.,14.2));
#1095=CARTESIAN_POINT('',(-28.,-0.25,14.2));
#1096=CARTESIAN_POINT('',(-25.7,-0.25,14.2));
#1097=CARTESIAN_POINT('',(28.,-0.249999999999987,14.2));
#1098=CARTESIAN_POINT('',(30.3,-0.249999999999987,14.2));
#1099=CARTESIAN_POINT('',(-26.9,-52.55,14.2));
#1100=CARTESIAN_POINT('',(-23.4,-52.55,14.2));
#1101=CARTESIAN_POINT('',(26.9,-52.55,14.2));
#1102=CARTESIAN_POINT('',(30.4,-52.55,14.2));
#1103=CARTESIAN_POINT('',(24.25,52.42,14.2));
#1104=CARTESIAN_POINT('',(27.75,52.42,14.2));
#1105=CARTESIAN_POINT('',(-24.25,52.42,14.2));
#1106=CARTESIAN_POINT('',(-20.75,52.42,14.2));
#1107=CARTESIAN_POINT('',(-26.9,-52.55,12.7));
#1108=CARTESIAN_POINT('',(26.9,-52.55,12.7));
#1109=CARTESIAN_POINT('',(24.25,52.42,12.7));
#1110=CARTESIAN_POINT('',(-24.25,52.42,12.7));
#1111=CARTESIAN_POINT('',(-28.,-0.25,13.2));
#1112=CARTESIAN_POINT('',(28.,-0.249999999999987,13.2));
#1113=CARTESIAN_POINT('',(0.511099584400654,42.3564148962498,6.2));
#1114=CARTESIAN_POINT('',(17.4383113056421,42.3564148962498,6.2));
#1115=CARTESIAN_POINT('',(17.4383113056421,42.3564148962498,6.2));
#1116=CARTESIAN_POINT('',(0.511099584400654,42.3564148962498,6.2));
#1117=CARTESIAN_POINT('',(-16.4161121368408,42.3564148962498,6.2));
#1118=CARTESIAN_POINT('',(-16.4161121368408,42.3564148962498,6.2));
#1119=CARTESIAN_POINT('',(17.4383113056421,32.7914245426655,6.2));
#1120=CARTESIAN_POINT('',(17.4383113056421,23.2264341890812,6.2));
#1121=CARTESIAN_POINT('',(17.4383113056421,23.2264341890812,6.2));
#1122=CARTESIAN_POINT('',(17.4383113056421,32.7914245426655,6.2));
#1123=CARTESIAN_POINT('',(0.511099584400654,23.2264341890812,6.2));
#1124=CARTESIAN_POINT('',(-16.4161121368408,23.2264341890812,6.2));
#1125=CARTESIAN_POINT('',(-16.4161121368408,23.2264341890812,6.2));
#1126=CARTESIAN_POINT('',(0.511099584400654,23.2264341890812,6.2));
#1127=CARTESIAN_POINT('',(-16.4161121368408,32.7914245426655,6.2));
#1128=CARTESIAN_POINT('',(-16.4161121368408,32.7914245426655,6.2));
#1129=CARTESIAN_POINT('',(6.93889390390723E-15,0.,6.2));
#1130=MECHANICAL_DESIGN_GEOMETRIC_PRESENTATION_REPRESENTATION('',(#673),
#1131);
#1131=(
GEOMETRIC_REPRESENTATION_CONTEXT(3)
GLOBAL_UNCERTAINTY_ASSIGNED_CONTEXT((#1132))
GLOBAL_UNIT_ASSIGNED_CONTEXT((#1135,#1134,#1133))
REPRESENTATION_CONTEXT('Part 290','TOP_LEVEL_ASSEMBLY_PART')
);
#1132=UNCERTAINTY_MEASURE_WITH_UNIT(LENGTH_MEASURE(1.E-5),#1135,
'DISTANCE_ACCURACY_VALUE','Maximum Tolerance applied to model');
#1133=(
NAMED_UNIT(*)
SI_UNIT($,.STERADIAN.)
SOLID_ANGLE_UNIT()
);
#1134=(
NAMED_UNIT(*)
PLANE_ANGLE_UNIT()
SI_UNIT($,.RADIAN.)
);
#1135=(
LENGTH_UNIT()
NAMED_UNIT(*)
SI_UNIT(.MILLI.,.METRE.)
);
#1136=PRODUCT_DEFINITION_SHAPE('','',#1137);
#1137=PRODUCT_DEFINITION('','',#1139,#1138);
#1138=PRODUCT_DEFINITION_CONTEXT('',#1145,'design');
#1139=PRODUCT_DEFINITION_FORMATION_WITH_SPECIFIED_SOURCE('','',#1141,
 .NOT_KNOWN.);
#1140=PRODUCT_RELATED_PRODUCT_CATEGORY('','',(#1141));
#1141=PRODUCT('Part 290','Part 290','Part 290',(#1143));
#1142=PRODUCT_CATEGORY('','');
#1143=PRODUCT_CONTEXT('',#1145,'mechanical');
#1144=APPLICATION_PROTOCOL_DEFINITION('international standard',
'automotive_design',2010,#1145);
#1145=APPLICATION_CONTEXT(
'core data for automotive mechanical design processes');
ENDSEC;
END-ISO-10303-21;
